<?xml version="1.0" encoding="utf-8"?>
<!-- Generator: Adobe Illustrator 19.2.0, SVG Export Plug-In . SVG Version: 6.00 Build 0)  -->
<svg version="1.1" id="Layer_1" xmlns="http://www.w3.org/2000/svg" xmlns:xlink="http://www.w3.org/1999/xlink" x="0px" y="0px"
	 viewBox="0 0 587.1 538.1" style="enable-background:new 0 0 587.1 538.1;" xml:space="preserve">
<style type="text/css">
	.st0{fill:#FFAE5F;}
	.st1{fill:#FFFFFF;}
	.st2{font-family:'ProximaNova-Semibold';}
	.st3{font-size:98.8088px;}
	.st4{font-family:'ProximaNovaT-Thin';}
	.st5{font-size:87.83px;}
	.st6{fill-rule:evenodd;clip-rule:evenodd;fill:#FFFFFF;}
</style>
<rect id="Orange_Square" class="st0" width="587.1" height="538.1"/>
<text transform="matrix(1 0 0 1 207.8417 370.2768)"><tspan x="0" y="0" class="st1 st2 st3">SENEX</tspan><tspan x="-90.5" y="86.6" class="st1 st4 st5">POWERED</tspan></text>
<path class="st6" d="M427.1,105.3c-33.7,0-61.1,27.4-61.1,61.1s27.4,61.1,61.1,61.1s61.1-27.4,61.1-61.1S460.8,105.3,427.1,105.3z
	 M399.2,189.5c-5.7-7.1-3-15.5-5.2-23.9c-2.2-8.2-6.3-11.5-6.3-11.5s18.3,0,27.4,7.8c9.1,7.8,12.5,14.4,12.1,21.9
	c-0.4,7.5-5.2,13.9-5.2,13.9s-6.6-16.6-10.2-22.7c-5-8.6-16.6-16.7-16.6-16.7s10.4,8.9,15.9,20.1c4.9,10.2,7.2,20.2,7.2,20.2
	S405.8,197.7,399.2,189.5z M451.6,138.2c-2.3,10.5,5.1,24,1.6,35.6c-4.3,14.1-21.9,20.1-21.9,20.1s-1.1,4.2-3.4,8.3
	c-2.3,4.1-5,7.5-5,7.5s-0.8-1.2-2-1c-1.2,0.3-2.1-0.4-2.1-0.4s7.8-8.6,10.2-19.4c1.1-5.1,0.4-9.6,0.4-9.6s2.9-17.1,8.8-28.8
	c3.3-6.5,9-14.1,9-14.1s-5,4.1-11.2,15.6c-4.7,8.8-7.8,23.9-7.8,23.9s-1.9-6.1-6.6-10.8c-2.5-2.5-6-5.1-6-5.1s0.8-13.8,19.1-23.6
	c9.7-5.2,19.6-7.3,19.6-7.3l-1.9,1.9c0,0,1.2-0.6,2.2-0.9c1-0.3,2,0.1,2,0.1S453.1,131.4,451.6,138.2z"/>
<path class="st1" d="M517,169.9v-9.6l-18.7-3.6c-0.4-3.1-1-6.1-1.8-9.1l15.9-12.1l-3.7-8.8l-19.3,4c-1.9-3.3-4-6.4-6.4-9.3l9.8-16.9
	l-6.8-6.8l-16.2,11c-2.5-1.9-5.2-3.6-8-5.2l2.7-20.1l-8.8-3.7l-11.1,16.9c-2.9-0.8-5.9-1.3-9-1.7l-4.9-18.7h-9.6L417.7,95
	c-0.1,0-0.2,0-0.3,0c-3,0.4-6,1-8.9,1.8l-11.9-15.6l-8.8,3.7l3.9,18.8c-2.7,1.5-5.4,3.3-7.9,5.1l-17.8-10.3l-6.8,6.8l11.2,16.5
	c-1.9,2.4-3.6,4.8-5.2,7.4l-20.2-2.7l-3.7,8.8l16.4,10.8c-1.1,3.6-1.8,7.2-2.3,11l-18.7,5v9.6l18.6,3.5c0.4,3.7,1.2,7.4,2.2,10.9
	l-14.8,11.2l3.7,8.8l18-3.7c1.5,2.6,3.2,5.1,5,7.6l-9.6,16.5l6.8,6.8l15.3-10.4c2.8,2.2,5.8,4.3,8.9,6.1l-2.4,18.2l8.8,3.7l9.8-14.9
	c3.6,1,7.2,1.8,11,2.2l4.9,18.7h9.6l3.6-18.7c3.7-0.5,7.2-1.2,10.7-2.2l11.5,15l8.8-3.7l-3.8-18.4c3.2-1.9,6.2-3.9,9-6.2l15.6,9.1
	l6.8-6.8l-10.2-14.9c2.3-3,4.3-6.2,6.1-9.5l18.1,2.4l3.7-8.8l-15.4-10.1c0.7-2.9,1.3-5.9,1.6-8.9L517,169.9z M493.4,166.5
	c0,36.7-29.8,66.5-66.5,66.5s-66.5-29.8-66.5-66.5s29.8-66.5,66.5-66.5S493.4,129.7,493.4,166.5z"/>
</svg>
