<?xml version="1.0" encoding="utf-8"?>
<!-- Generator: Adobe Illustrator 19.2.0, SVG Export Plug-In . SVG Version: 6.00 Build 0)  -->
<svg version="1.1" id="Layer_1" xmlns="http://www.w3.org/2000/svg" xmlns:xlink="http://www.w3.org/1999/xlink" x="0px" y="0px"
	 viewBox="0 0 988.3 142.9" style="enable-background:new 0 0 988.3 142.9;" xml:space="preserve">
<style type="text/css">
  .sky{fill:rgba(52,152,219,1);}
	.buildings{fill:rgba(41,128,185,1);}
	.bridge{fill:none;}
</style>
<rect id="Sky" class="sky" width="988.3" height="142.9"/>
<path id="Bridge" class="bridge" d="M347.8,142.9h10.5v-35.6h130.3v35.6h10.5v-35.6h97.7v-3.5h-97.7V56.5c2.5,4.3,5.6,9.2,9.5,14
	c15.2,19.1,34.4,29.2,55.7,29.2c1.1,0,2-0.9,2-2s-0.9-2-2-2c-37.3,0-57.6-32.7-65.1-47.9v-7h-1l-4.3-13.9l-4.3,13.9h-1V44l0,0h0v3.8
	c-7.5,15.2-27.9,47.9-65.1,47.9c-37.3,0-57.6-32.7-65.1-47.9v-7h-1l-4.3-13.9l-4.3,13.9h-1v7c-7.5,15.3-27.8,47.9-65.1,47.9
	c-1.1,0-2,0.9-2,2s0.9,2,2,2c21.2,0,40.5-10.1,55.7-29.2c3.9-4.9,7-9.7,9.5-14v47.3h-91.1v3.5h91.1V142.9z M358.3,56.5
	c2.5,4.3,5.6,9.2,9.5,14c15.2,19.1,34.4,29.2,55.7,29.2c21.2,0,40.5-10.1,55.7-29.2c3.9-4.9,7-9.7,9.5-14v47.3H358.3V56.5z"/>
<g id="Buildings">
	<rect x="308.5" y="117" class="buildings" width="51.4" height="25.9"/>
	<polygon class="buildings" points="668.6,106 640.8,106 640.8,97.7 624.4,97.7 624.4,106 617,106 617,142.9 668.6,142.9 	"/>
	<polygon class="buildings" points="298.3,71.4 289.3,71.4 289.3,30.5 246.7,30.5 246.7,71.4 246.7,78 246.7,142.9 298.3,142.9 	"/>
	<polygon class="buildings" points="606.8,32.5 600.6,32.5 600.6,26.9 562.1,26.9 562.1,32.5 555.2,32.5 555.2,142.9 606.8,142.9 	"/>
	<rect x="493.6" y="86.7" class="buildings" width="51.6" height="56.2"/>
	<polygon class="buildings" points="51,86.7 42.8,86.7 42.8,77.7 28.4,77.7 28.4,86.7 0.3,86.7 0.3,142.9 51,142.9 	"/>
	<rect x="184.5" y="103.8" class="buildings" width="51.6" height="39.1"/>
	<rect x="61.1" y="13.7" class="buildings" width="51.6" height="129.2"/>
	<polygon class="buildings" points="174.2,40.8 167.7,40.8 167.7,30.5 129,30.5 129,40.8 122.6,40.8 122.6,142.9 174.2,142.9 	"/>
	<rect x="740.4" y="58.8" class="buildings" width="51.6" height="84.1"/>
	<rect x="864.3" y="108" class="buildings" width="51.6" height="34.9"/>
	<polygon class="buildings" points="977.8,142.9 977.8,99.3 977.8,92.8 977.8,51.8 935.2,51.8 935.2,92.8 926.2,92.8 926.2,142.9 	"/>
</g>
</svg>
