<?xml version="1.0" encoding="utf-8"?>
<!-- Generator: Adobe Illustrator 19.2.0, SVG Export Plug-In . SVG Version: 6.00 Build 0)  -->
<svg version="1.1" id="Layer_1" xmlns="http://www.w3.org/2000/svg" xmlns:xlink="http://www.w3.org/1999/xlink" x="0px" y="0px"
	 viewBox="0 0 988.3 142.9" style="enable-background:new 0 0 988.3 142.9;" xml:space="preserve">
<style type="text/css">

  .bg{fill:rgba(142,68,173,1);}
	.shelf{fill:rgba(155,89,182,1);}
	.book{fill:rgba(155,89,182,1);}
	.decoration{fill:rgba(142,68,173,1);}


</style>
<rect id="BG" class="bg" width="988.3" height="142.9"/>
<rect x="196.2" class="shelf" width="11.2" height="136.4"/>
<rect x="504.8" class="shelf" width="11.2" height="136.4"/>
<rect x="813.5" class="shelf" width="11.2" height="136.4"/>
<rect y="130" class="shelf" width="988.3" height="12.9"/>
<rect x="4.3" y="21.5" class="book" width="25" height="106"/>
<rect x="32.8" y="21.5" class="book" width="25" height="106"/>
<rect x="210.3" y="21.5" class="book" width="25" height="106"/>
<rect x="783.7" y="21.5" class="book" width="25" height="106"/>
<rect x="547.2" y="29.5" class="book" width="20.3" height="98"/>
<rect x="573" y="29.5" class="book" width="10.2" height="98"/>
<rect x="533" y="76.7" class="book" width="10.2" height="50.8"/>
<rect x="519.4" y="76.7" class="book" width="10.2" height="50.8"/>
<rect x="268.2" y="48.5" class="book" width="10.2" height="79"/>
<rect x="72.7" y="29.5" class="book" width="20.3" height="98"/>
<rect x="337.4" y="29.6" class="book" width="20.3" height="98"/>
<rect x="160" y="30" transform="matrix(0.9626 0.271 -0.271 0.9626 27.7804 -43.1693)" class="book" width="20.3" height="98"/>
<rect x="629.6" y="13.5" class="book" width="8.4" height="114"/>
<rect x="925.9" y="13.5" transform="matrix(0.9835 -0.1809 0.1809 0.9835 2.5929 169.4277)" class="book" width="8.4" height="114"/>
<rect x="61.1" y="13.5" class="book" width="8.4" height="114"/>
<rect x="256.7" y="13.5" class="book" width="8.4" height="114"/>
<rect x="301.3" y="21.5" class="book" width="32.2" height="106"/>
<rect x="678.2" y="39.8" class="book" width="21.5" height="87.7"/>
<rect x="640.8" y="39.8" class="book" width="14.5" height="87.7"/>
<rect x="610.5" y="48.5" class="book" width="14.5" height="79"/>
<rect x="238.3" y="39.8" class="book" width="14.5" height="87.7"/>
<rect x="587.5" y="21.5" class="book" width="19.3" height="106"/>
<rect x="140" y="39.8" transform="matrix(0.9626 0.271 -0.271 0.9626 28.1793 -36.775)" class="book" width="14.5" height="87.7"/>
<rect x="827.6" y="39.8" class="book" width="14.5" height="87.7"/>
<rect x="846" y="39.8" class="book" width="14.5" height="87.7"/>
<rect x="864.3" y="39.8" class="book" width="14.5" height="87.7"/>
<rect x="882.8" y="35.9" class="book" width="14.5" height="91.6"/>
<rect x="901.4" y="39.8" class="book" width="14.5" height="87.7"/>
<rect x="660.5" y="39.8" class="book" width="14.5" height="87.7"/>
<rect x="740" y="24.5" class="book" width="38.4" height="103"/>
<rect x="98.4" y="35.9" class="book" width="27.1" height="91.6"/>
<rect x="948.9" y="24.5" class="book" width="39.4" height="103"/>
<rect x="361.6" y="105.1" class="book" width="137.6" height="22.4"/>
<rect x="379.4" y="83.6" class="book" width="119.8" height="18.4"/>
<rect x="375.4" y="74.5" class="book" width="123.9" height="6.3"/>
<rect x="281.4" y="17.8" class="book" width="15.7" height="109.7"/>
<rect x="712.9" y="17.8" transform="matrix(0.9886 0.1507 -0.1507 0.9886 19.1809 -107.7916)" class="book" width="15.7" height="109.7"/>
<rect x="150" y="46.9" transform="matrix(0.9626 0.271 -0.271 0.9626 18.8873 -40.8318)" class="decoration" width="14.5" height="2.2"/>
<rect x="171.3" y="36.7" transform="matrix(0.9626 0.271 -0.271 0.9626 17.358 -47.7197)" class="decoration" width="20.3" height="4.5"/>
<rect x="148.7" y="117.2" transform="matrix(0.9626 0.271 -0.271 0.9626 38.3189 -38.5682)" class="decoration" width="20.3" height="4.5"/>
<rect x="129.9" y="118.4" transform="matrix(0.9626 0.271 -0.271 0.9626 37.5089 -32.7017)" class="decoration" width="14.5" height="2.2"/>
<rect x="238.3" y="116.3" class="decoration" width="14.5" height="3.2"/>
<rect x="238.3" y="110.6" class="decoration" width="14.5" height="3.2"/>
<rect x="268.2" y="56.5" class="decoration" width="10.2" height="47.2"/>
<rect x="281.4" y="25.2" class="decoration" width="15.7" height="4.3"/>
<rect x="281.4" y="31.1" class="decoration" width="15.7" height="4.3"/>
<rect x="281.4" y="111.2" class="decoration" width="15.7" height="4.3"/>
<rect x="281.4" y="117.1" class="decoration" width="15.7" height="4.3"/>
<rect x="337.4" y="44" class="decoration" width="20.3" height="19"/>
<rect x="337.4" y="66.7" class="decoration" width="20.3" height="2.7"/>
<rect x="337.4" y="38.4" class="decoration" width="20.3" height="2.7"/>
<circle class="decoration" cx="317.4" cy="61" r="8.4"/>
<circle class="decoration" cx="406.9" cy="92.9" r="4.9"/>
<circle class="decoration" cx="222.8" cy="39.8" r="6.5"/>
<circle class="decoration" cx="759.2" cy="65.1" r="11.6"/>
<rect x="948.9" y="48.5" class="decoration" width="39.4" height="16.7"/>
<rect x="948.9" y="71.4" class="decoration" width="39.4" height="4.6"/>
<rect x="4.3" y="39.8" class="decoration" width="25" height="17"/>
<rect x="32.8" y="39.8" class="decoration" width="25" height="17"/>
<rect x="72.7" y="48.5" class="decoration" width="20.3" height="5.1"/>
<rect x="72.7" y="61" class="decoration" width="20.3" height="4.2"/>
<rect x="369.7" y="105.1" class="decoration" width="4.1" height="22.3"/>
<rect x="399.9" y="105.1" class="decoration" width="4.1" height="22.3"/>
<rect x="488.6" y="105.1" class="decoration" width="5" height="22.3"/>
<rect x="379.4" y="105.1" class="decoration" width="14.7" height="22.3"/>
<rect x="98.4" y="110.7" class="decoration" width="27.1" height="3"/>
<rect x="98.4" y="45.7" class="decoration" width="27.1" height="15.2"/>
<rect x="551" y="39.8" class="decoration" width="13.2" height="53.1"/>
<rect x="547.2" y="113.7" class="decoration" width="20.3" height="2.6"/>
<rect x="827.6" y="108.7" class="decoration" width="14.5" height="5.1"/>
<rect x="846" y="108.7" class="decoration" width="14.5" height="5.1"/>
<rect x="864.3" y="108.7" class="decoration" width="14.5" height="5.1"/>
<rect x="901.4" y="108.7" class="decoration" width="14.5" height="5.1"/>
<rect x="882.8" y="43.9" class="decoration" width="14.5" height="4.6"/>
<rect x="882.8" y="115.4" class="decoration" width="14.5" height="4.1"/>
<rect x="210.3" y="52.5" class="decoration" width="25" height="8"/>
<rect x="740" y="110.3" class="decoration" width="38.4" height="6"/>
<rect x="783.7" y="33.2" class="decoration" width="25" height="3.5"/>
<rect x="783.7" y="112.5" class="decoration" width="25" height="3.8"/>
<rect x="640.8" y="47" class="decoration" width="14.5" height="23.5"/>
<rect x="610.5" y="99.5" class="decoration" width="14.5" height="23.5"/>
<rect x="660.5" y="47" class="decoration" width="14.5" height="23.5"/>
<rect x="684.4" y="57" class="decoration" width="9" height="53.4"/>
<rect x="587.5" y="32.5" class="decoration" width="19.3" height="7.3"/>
<rect x="587.5" y="43" class="decoration" width="19.3" height="4"/>
<rect x="4.3" y="35.9" class="decoration" width="25" height="2.3"/>
<rect x="4.3" y="58.7" class="decoration" width="25" height="2.3"/>
<rect x="32.8" y="35.8" class="decoration" width="25" height="2.3"/>
<rect x="32.8" y="58.6" class="decoration" width="25" height="2.3"/>
</svg>
