<?xml version="1.0" encoding="utf-8"?>
<!-- Generator: Adobe Illustrator 19.2.0, SVG Export Plug-In . SVG Version: 6.00 Build 0)  -->
<svg version="1.1" id="Layer_1" xmlns="http://www.w3.org/2000/svg" xmlns:xlink="http://www.w3.org/1999/xlink" x="0px" y="0px"
	 viewBox="0 0 988.3 142.9" style="enable-background:new 0 0 988.3 142.9;" xml:space="preserve">
<style type="text/css">
	 .st0{
    fill: rgba(46,204,113,1);
  }
</style>
<g>
	<rect x="216.4" y="46.8" class="st0" width="12.7" height="12.7"/>
	<rect x="216.1" y="72.6" class="st0" width="12.7" height="12.7"/>
	<rect x="190.6" y="124.1" class="st0" width="12.7" height="12.7"/>
	<rect x="216.1" y="123.9" class="st0" width="12.9" height="12.9"/>
	<rect x="252" y="86" class="st0" width="12.9" height="12.9"/>
	<rect x="190.3" y="46.5" class="st0" width="12.9" height="12.9"/>
	<rect x="252" y="112.1" class="st0" width="12.7" height="12.7"/>
	<rect x="154.7" y="93.1" class="st0" width="12.9" height="12.9"/>
	<rect x="32.5" y="128.6" class="st0" width="12.9" height="12.9"/>
	<rect x="190.3" y="98.1" class="st0" width="12.9" height="12.9"/>
	<rect x="6.7" y="77.3" class="st0" width="12.7" height="12.7"/>
	<rect x="32.5" y="77" class="st0" width="12.9" height="12.9"/>
	<rect x="6.9" y="103.1" class="st0" width="12.7" height="12.7"/>
	<rect x="277.8" y="111.8" class="st0" width="12.9" height="12.9"/>
	<rect x="93.5" y="136.1" class="st0" width="12.9" height="6.8"/>
	<rect x="128.5" y="118.1" class="st0" width="13.3" height="13.3"/>
	<circle class="st0" cx="271.2" cy="69.8" r="4.5"/>
	<circle class="st0" cx="890.1" cy="63.1" r="4.5"/>
	<rect x="896.6" y="105.4" class="st0" width="12.7" height="12.7"/>
	<rect x="896.3" y="79.4" class="st0" width="12.9" height="12.9"/>
	<rect x="870.5" y="105.2" class="st0" width="12.9" height="12.9"/>
	<polygon class="st0" points="0,0 0,70.6 25.8,44.8 51.6,70.6 51.6,142.9 61.3,142.9 61.3,129.3 87.1,103.5 112.9,129.3
		112.9,142.9 122.5,142.9 122.5,86.3 148.2,60.5 174,86.3 174,142.9 184.1,142.9 184.1,40.1 209.9,14.3 235.7,40.1 235.7,142.9
		245.6,142.9 245.6,79.8 271.4,54 297.2,79.8 297.2,142.9 307.5,142.9 307.5,136.3 333.3,110.5 359.1,136.3 359.1,142.9
		369.7,142.9 369.7,111.4 395.5,85.6 421.3,111.4 421.3,142.9 431.5,142.9 431.5,66.5 457.3,40.7 483.1,66.5 483.1,142.9
		493.1,142.9 493.1,96.5 518.9,70.7 544.7,96.5 544.7,142.9 555,142.9 555,115.2 580.8,89.4 606.6,115.2 606.6,142.9 616.6,142.9
		616.6,85.8 642.4,60 668.2,85.8 668.2,142.9 678.2,142.9 678.2,93.8 704,68 729.8,93.8 729.8,142.9 740,142.9 740,118.7
		765.8,92.9 791.6,118.7 791.6,142.9 803.1,142.9 828,118 852.9,142.9 864.1,142.9 864.1,73.2 889.9,47.4 915.7,73.2 915.7,142.9
		925.7,142.9 925.7,85.3 951.5,59.5 977.3,85.3 977.3,142.9 988.3,142.9 988.3,0 	"/>
	<rect x="931.8" y="117.2" class="st0" width="13.3" height="13.3"/>
	<rect x="772.2" y="125.5" class="st0" width="12.9" height="12.9"/>
	<rect x="957.9" y="92.1" class="st0" width="12.9" height="12.9"/>
	<rect x="587.2" y="122" class="st0" width="12.9" height="12.9"/>
	<rect x="710.7" y="100.3" class="st0" width="12.9" height="12.9"/>
	<rect x="463.7" y="73.2" class="st0" width="12.7" height="12.7"/>
	<rect x="437.7" y="72.9" class="st0" width="12.9" height="12.9"/>
	<rect x="437.7" y="124.5" class="st0" width="12.9" height="12.9"/>
	<rect x="463.5" y="99" class="st0" width="12.7" height="12.7"/>
	<rect x="685.1" y="126.3" class="st0" width="12.7" height="12.7"/>
	<rect x="684.9" y="100.5" class="st0" width="12.7" height="12.7"/>
	<rect x="376.1" y="118.2" class="st0" width="12.9" height="12.9"/>
</g>
</svg>
