<?xml version="1.0" encoding="utf-8"?>
<!-- Generator: Adobe Illustrator 19.2.1, SVG Export Plug-In . SVG Version: 6.00 Build 0)  -->
<svg version="1.1" id="Layer_1" xmlns="http://www.w3.org/2000/svg" xmlns:xlink="http://www.w3.org/1999/xlink" x="0px" y="0px"
	 viewBox="0 0 471.1 431.8" style="enable-background:new 0 0 471.1 431.8;" xml:space="preserve">
<style type="text/css">
	.st0{fill:#FFAE5F;}
	.st1{fill:#FFFFFF;}
	.st2{fill-rule:evenodd;clip-rule:evenodd;fill:#FFFFFF;}
</style>
<g id="Powered">
	<rect id="Orange_Square_2_" class="st0" width="471.1" height="431.8"/>
	<g>
		<path class="st1" d="M169,289.7l5.2-7.1c3.6,3.9,9.4,7.3,16.7,7.3c7.6,0,10.6-3.7,10.6-7.2c0-4.8-5.6-6.2-12.1-7.8
			c-8.6-2.1-18.8-4.7-18.8-15.9c0-8.7,7.7-15.5,19.3-15.5c8.2,0,14.9,2.6,19.8,7.4l-5.3,6.9c-4.1-4.1-9.8-6-15.3-6
			c-5.5,0-9,2.6-9,6.6c0,4.1,5.4,5.5,11.7,7.1c8.7,2.2,19.1,4.9,19.1,16.4c0,8.8-6.2,16.3-20.5,16.3
			C180.7,298.1,173.7,294.7,169,289.7z"/>
		<path class="st1" d="M219.5,297.1v-52.9h36.2v8.2h-27v13.7h26.4v8.2h-26.4v14.7h27v8.2H219.5z"/>
		<path class="st1" d="M302.1,297.1l-27.6-37.7v37.7h-9.3v-52.9h9.5l27,36.7v-36.7h9.3v52.9H302.1z"/>
		<path class="st1" d="M322.3,297.1v-52.9h36.2v8.2h-27v13.7H358v8.2h-26.4v14.7h27v8.2H322.3z"/>
		<path class="st1" d="M403.4,297.1l-14.8-20.7l-14.8,20.7h-11.1l19.8-27.1l-18.6-25.8H375l13.6,19.4l13.6-19.4h11.2l-18.6,25.7
			l19.7,27.2H403.4z"/>
		<path class="st1" d="M101.8,319.6h16.3c8.7,0,13.7,6.1,13.7,13.3c0,7.2-5.1,13.3-13.7,13.3h-14v20.4h-2.3V319.6z M118,321.7h-14
			v22.4h14c6.9,0,11.3-4.7,11.3-11.2S124.9,321.7,118,321.7z"/>
		<path class="st1" d="M161.6,318.8c13.6,0,22.3,10.7,22.3,24.3s-8.7,24.3-22.3,24.3c-13.7,0-22.3-10.7-22.3-24.3
			S148,318.8,161.6,318.8z M161.6,321c-12.2,0-19.9,9.3-19.9,22.2c0,12.8,7.7,22.2,19.9,22.2c12.1,0,19.9-9.4,19.9-22.2
			C181.5,330.3,173.7,321,161.6,321z"/>
		<path class="st1" d="M217.2,323.8L205,366.6h-2.7l-13.4-47h2.5l12.3,43.6l12.3-43.6h2.4l12.3,43.6l12.3-43.6h2.5l-13.4,47h-2.7
			L217.2,323.8z"/>
		<path class="st1" d="M253.4,319.6h28.8v2.1h-26.5v19.7h26v2.1h-26v21h26.5v2.1h-28.8V319.6z"/>
		<path class="st1" d="M306.3,346.3H295v20.3h-2.3v-47h16.2c7.6,0,13.9,4.7,13.9,13.3s-6.3,13.4-13.9,13.4l14.5,20.3h-2.9
			L306.3,346.3z M308.9,321.7h-14v22.5h14c6.9,0,11.4-4.8,11.4-11.3S315.8,321.7,308.9,321.7z"/>
		<path class="st1" d="M333.5,319.6h28.8v2.1h-26.5v19.7h26v2.1h-26v21h26.5v2.1h-28.8V319.6z"/>
		<path class="st1" d="M372.9,319.6h14c14.6,0,23.4,11,23.4,23.5c0,12.7-8.8,23.5-23.4,23.5h-14V319.6z M386.8,364.5
			c13.3,0,20.9-9.4,20.9-21.4c0-11.8-7.6-21.4-20.9-21.4h-11.7v42.8H386.8z"/>
	</g>
	<g id="Gear">
		<path class="st2" d="M342.7,84.5c-27.1,0-49,21.9-49,49s21.9,49,49,49s49-21.9,49-49S369.8,84.5,342.7,84.5z M320.3,152
			c-4.6-5.7-2.4-12.4-4.2-19.2c-1.8-6.6-5.1-9.2-5.1-9.2s14.7,0,22,6.2c7.3,6.3,10,11.6,9.7,17.6c-0.3,6-4.1,11.2-4.1,11.2
			s-5.3-13.3-8.2-18.2c-4.1-6.9-13.3-13.4-13.3-13.4s8.4,7.1,12.7,16.2c3.9,8.2,5.8,16.2,5.8,16.2S325.6,158.6,320.3,152z
			 M362.4,110.9c-1.8,8.4,4.1,19.2,1.3,28.6c-3.4,11.3-17.5,16.2-17.5,16.2s-0.9,3.4-2.7,6.6c-1.8,3.3-4,6-4,6s-0.7-1-1.6-0.8
			c-1,0.2-1.7-0.3-1.7-0.3s6.2-6.9,8.2-15.6c0.9-4.1,0.3-7.7,0.3-7.7s2.3-13.7,7.1-23.1c2.6-5.2,7.2-11.3,7.2-11.3s-4,3.3-9,12.5
			c-3.8,7-6.3,19.2-6.3,19.2s-1.5-4.9-5.3-8.7c-2-2-4.8-4.1-4.8-4.1s0.6-11,15.4-18.9c7.8-4.2,15.7-5.9,15.7-5.9l-1.5,1.5
			c0,0,1-0.5,1.7-0.7c0.8-0.2,1.6,0.1,1.6,0.1S363.5,105.5,362.4,110.9z"/>
		<path class="st1" d="M414.9,136.4v-7.7l-15-2.9c-0.3-2.5-0.8-4.9-1.5-7.3l12.8-9.7l-2.9-7.1l-15.4,3.2c-1.5-2.6-3.2-5.1-5.1-7.5
			l7.9-13.6l-5.4-5.4l-13,8.8c-2-1.5-4.2-2.9-6.4-4.2l2.2-16.1l-7.1-2.9l-8.9,13.5c-2.4-0.6-4.8-1.1-7.2-1.4l-4-15H338l-2.9,15
			c-0.1,0-0.2,0-0.3,0c-2.4,0.3-4.8,0.8-7.1,1.4l-9.6-12.5l-7.1,2.9l3.1,15.1c-2.2,1.2-4.3,2.6-6.3,4.1L293.6,79l-5.4,5.4l9,13.3
			c-1.5,1.9-2.9,3.9-4.1,5.9l-16.2-2.2l-2.9,7.1l13.2,8.6c-0.8,2.9-1.5,5.8-1.9,8.8l-15,4v7.7l14.9,2.8c0.4,3,0.9,5.9,1.7,8.7
			l-11.8,9l2.9,7.1l14.4-3c1.2,2.1,2.6,4.1,4,6.1l-7.7,13.2l5.4,5.4l12.3-8.4c2.2,1.8,4.6,3.4,7.1,4.9l-2,14.6l7.1,2.9l7.9-12
			c2.8,0.8,5.8,1.4,8.8,1.8l4,15h7.7l2.9-15c2.9-0.4,5.8-1,8.6-1.8l9.2,12.1l7.1-2.9l-3.1-14.8c2.5-1.5,4.9-3.2,7.2-5l12.5,7.3
			l5.4-5.4l-8.1-12c1.8-2.4,3.4-4.9,4.9-7.6l14.5,2l2.9-7.1l-12.4-8.1c0.6-2.3,1-4.7,1.3-7.2L414.9,136.4z M395.9,133.6
			c0,29.5-23.9,53.4-53.4,53.4s-53.4-23.9-53.4-53.4s23.9-53.4,53.4-53.4S395.9,104.1,395.9,133.6z"/>
	</g>
</g>
</svg>
