<?xml version="1.0" encoding="utf-8"?>
<!-- Generator: Adobe Illustrator 19.2.0, SVG Export Plug-In . SVG Version: 6.00 Build 0)  -->
<svg version="1.1" xmlns="http://www.w3.org/2000/svg" xmlns:xlink="http://www.w3.org/1999/xlink" x="0px" y="0px"
	 viewBox="0 0 587.1 538.1" style="enable-background:new 0 0 587.1 538.1;" xml:space="preserve">
<style type="text/css">
	.st0{display:none;}
	.st1{display:inline;fill:#2C3E50;stroke:#000000;stroke-miterlimit:10;}
	.st2{fill:#FFFFFF;}
	.st3{enable-background:new    ;}
</style>
<g id="Layer_2" class="st0">
	<rect x="-74" y="-53" class="st1" width="782" height="676"/>
</g>
<g id="Layer_1">
	<g id="Orange_Square">
		<path class="st2" d="M580.1,7v524.1H7V7H580.1 M587.1,0H0v538.1h587.1V0L587.1,0z"/>
	</g>
	<g class="st3">
		<path class="st2" d="M210.6,361l6.4-8.9c4.5,4.8,11.7,9.1,20.9,9.1c9.5,0,13.2-4.6,13.2-9c0-5.9-7-7.7-15-9.8
			c-10.8-2.7-23.4-5.8-23.4-19.8c0-10.9,9.6-19.3,24-19.3c10.3,0,18.6,3.3,24.7,9.2l-6.6,8.6c-5.1-5.1-12.2-7.5-19.1-7.5
			c-6.8,0-11.2,3.3-11.2,8.2c0,5.1,6.7,6.8,14.5,8.8c10.9,2.8,23.8,6.1,23.8,20.5c0,11-7.7,20.4-25.5,20.4
			C225.2,371.5,216.4,367.2,210.6,361z"/>
		<path class="st2" d="M273.5,370.3v-65.9h45.2v10.2h-33.6v17.1H318v10.2h-32.9v18.3h33.6v10.2H273.5z"/>
		<path class="st2" d="M376.5,370.3l-34.4-47v47h-11.6v-65.9h11.9l33.7,45.8v-45.8h11.6v65.9H376.5z"/>
		<path class="st2" d="M401.7,370.3v-65.9h45.2v10.2h-33.6v17.1h32.9v10.2h-32.9v18.3h33.6v10.2H401.7z"/>
		<path class="st2" d="M502.8,370.3l-18.5-25.8l-18.5,25.8H452l24.7-33.8l-23.2-32.1h13.8l17,24.2l16.9-24.2h13.9l-23.1,32
			l24.6,33.9H502.8z"/>
	</g>
	<g class="st3">
		<path class="st2" d="M125.1,398.3h20.3c10.9,0,17.1,7.6,17.1,16.6s-6.4,16.6-17.1,16.6h-17.5v25.4h-2.8V398.3z M145.3,400.9h-17.4
			v27.9h17.4c8.6,0,14.1-5.9,14.1-14S153.9,400.9,145.3,400.9z"/>
		<path class="st2" d="M199.6,397.3c17,0,27.8,13.4,27.8,30.3s-10.9,30.3-27.8,30.3c-17,0-27.8-13.3-27.8-30.3
			S182.6,397.3,199.6,397.3z M199.6,400c-15.2,0-24.8,11.6-24.8,27.7c0,15.9,9.6,27.7,24.8,27.7c15,0,24.8-11.8,24.8-27.7
			C224.4,411.6,214.7,400,199.6,400z"/>
		<path class="st2" d="M268.8,403.6l-15.2,53.3h-3.3l-16.7-58.6h3.1l15.3,54.4l15.4-54.4h3l15.4,54.4l15.3-54.4h3.1l-16.7,58.6H284
			L268.8,403.6z"/>
		<path class="st2" d="M314,398.3h35.8v2.6h-33v24.5h32.4v2.6h-32.4v26.2h33v2.6H314V398.3z"/>
		<path class="st2" d="M379.9,431.6h-14.1v25.3H363v-58.6h20.2c9.5,0,17.3,5.9,17.3,16.6s-7.8,16.7-17.3,16.7l18.1,25.3h-3.6
			L379.9,431.6z M383.2,400.9h-17.4v28h17.4c8.6,0,14.2-6,14.2-14.1S391.8,400.9,383.2,400.9z"/>
		<path class="st2" d="M413.9,398.3h35.8v2.6h-33v24.5h32.4v2.6h-32.4v26.2h33v2.6h-35.8V398.3z"/>
		<path class="st2" d="M462.9,398.3h17.4c18.2,0,29.2,13.7,29.2,29.3c0,15.8-11,29.2-29.2,29.2h-17.4V398.3z M480.3,454.2
			c16.6,0,26.1-11.8,26.1-26.6c0-14.7-9.5-26.7-26.1-26.7h-14.6v53.3H480.3z"/>
	</g>
	<path class="st2" d="M427.1,105.3c-33.7,0-61.1,27.4-61.1,61.1s27.4,61.1,61.1,61.1s61.1-27.4,61.1-61.1S460.8,105.3,427.1,105.3z
		 M399.2,189.5c-5.7-7.1-3-15.5-5.2-23.9c-2.2-8.2-6.3-11.5-6.3-11.5s18.3,0,27.4,7.8s12.5,14.4,12.1,21.9s-5.2,13.9-5.2,13.9
		s-6.6-16.6-10.2-22.7c-5-8.6-16.6-16.7-16.6-16.7s10.4,8.9,15.9,20.1c4.9,10.2,7.2,20.2,7.2,20.2S405.8,197.7,399.2,189.5z
		 M451.6,138.2c-2.3,10.5,5.1,24,1.6,35.6c-4.3,14.1-21.9,20.1-21.9,20.1s-1.1,4.2-3.4,8.3s-5,7.5-5,7.5s-0.8-1.2-2-1
		c-1.2,0.3-2.1-0.4-2.1-0.4s7.8-8.6,10.2-19.4c1.1-5.1,0.4-9.6,0.4-9.6s2.9-17.1,8.8-28.8c3.3-6.5,9-14.1,9-14.1s-5,4.1-11.2,15.6
		c-4.7,8.8-7.8,23.9-7.8,23.9s-1.9-6.1-6.6-10.8c-2.5-2.5-6-5.1-6-5.1s0.8-13.8,19.1-23.6c9.7-5.2,19.6-7.3,19.6-7.3l-1.9,1.9
		c0,0,1.2-0.6,2.2-0.9c1-0.3,2,0.1,2,0.1S453.1,131.4,451.6,138.2z"/>
	<path class="st2" d="M517,169.9v-9.6l-18.7-3.6c-0.4-3.1-1-6.1-1.8-9.1l15.9-12.1l-3.7-8.8l-19.3,4c-1.9-3.3-4-6.4-6.4-9.3
		l9.8-16.9l-6.8-6.8l-16.2,11c-2.5-1.9-5.2-3.6-8-5.2l2.7-20.1l-8.8-3.7l-11.1,16.9c-2.9-0.8-5.9-1.3-9-1.7l-4.9-18.7h-9.6L417.7,95
		c-0.1,0-0.2,0-0.3,0c-3,0.4-6,1-8.9,1.8l-11.9-15.6l-8.8,3.7l3.9,18.8c-2.7,1.5-5.4,3.3-7.9,5.1L366,98.5l-6.8,6.8l11.2,16.5
		c-1.9,2.4-3.6,4.8-5.2,7.4l-20.2-2.7l-3.7,8.8l16.4,10.8c-1.1,3.6-1.8,7.2-2.3,11l-18.7,5v9.6l18.6,3.5c0.4,3.7,1.2,7.4,2.2,10.9
		l-14.8,11.2l3.7,8.8l18-3.7c1.5,2.6,3.2,5.1,5,7.6l-9.6,16.5l6.8,6.8l15.3-10.4c2.8,2.2,5.8,4.3,8.9,6.1l-2.4,18.2l8.8,3.7L407,236
		c3.6,1,7.2,1.8,11,2.2l4.9,18.7h9.6l3.6-18.7c3.7-0.5,7.2-1.2,10.7-2.2l11.5,15l8.8-3.7l-3.8-18.4c3.2-1.9,6.2-3.9,9-6.2l15.6,9.1
		l6.8-6.8l-10.2-14.9c2.3-3,4.3-6.2,6.1-9.5l18.1,2.4l3.7-8.8L497,184.1c0.7-2.9,1.3-5.9,1.6-8.9L517,169.9z M493.4,166.5
		c0,36.7-29.8,66.5-66.5,66.5s-66.5-29.8-66.5-66.5s29.8-66.5,66.5-66.5S493.4,129.7,493.4,166.5z"/>
</g>
</svg>
