<?xml version="1.0" encoding="utf-8"?>
<!-- Generator: Adobe Illustrator 19.2.1, SVG Export Plug-In . SVG Version: 6.00 Build 0)  -->
<svg version="1.1" id="Layer_1" xmlns="http://www.w3.org/2000/svg" xmlns:xlink="http://www.w3.org/1999/xlink" x="0px" y="0px"
	 viewBox="0 0 471.1 431.8" style="enable-background:new 0 0 471.1 431.8;" xml:space="preserve">
<style type="text/css">
	.st3{fill:#FFFFFF;}
	.st8{fill-rule:evenodd;clip-rule:evenodd;fill:#FFFFFF;}
	.st9{fill:#57C1E8;}
</style>
<g id="Law">
	<rect id="Blue_Square_1_" class="st9" width="471.1" height="431.8"/>
	<g>
		<path class="st3" d="M163.4,291.3l5.2-7.1c3.6,3.9,9.4,7.3,16.7,7.3c7.6,0,10.6-3.7,10.6-7.2c0-4.8-5.6-6.2-12.1-7.8
			c-8.6-2.1-18.8-4.7-18.8-15.9c0-8.7,7.7-15.5,19.3-15.5c8.2,0,14.9,2.6,19.8,7.4l-5.3,6.9c-4.1-4.1-9.8-6-15.3-6
			c-5.5,0-9,2.6-9,6.6c0,4.1,5.4,5.5,11.7,7.1c8.7,2.2,19.1,4.9,19.1,16.4c0,8.8-6.2,16.3-20.5,16.3
			C175.2,299.7,168.1,296.3,163.4,291.3z"/>
		<path class="st3" d="M214,298.8v-52.9h36.2v8.2h-27v13.7h26.4v8.2h-26.4v14.7h27v8.2H214z"/>
		<path class="st3" d="M296.6,298.8L269,261v37.7h-9.3v-52.9h9.5l27,36.7v-36.7h9.3v52.9H296.6z"/>
		<path class="st3" d="M316.8,298.8v-52.9H353v8.2h-27v13.7h26.4v8.2h-26.4v14.7h27v8.2H316.8z"/>
		<path class="st3" d="M397.9,298.8l-14.8-20.7l-14.8,20.7h-11.1l19.8-27.1l-18.6-25.8h11.1l13.6,19.4l13.6-19.4h11.2l-18.6,25.7
			l19.7,27.2H397.9z"/>
		<path class="st3" d="M276.4,369.2v-47h4v43.3h22.8v3.7H276.4z"/>
		<path class="st3" d="M346,369.2l-4.7-11.6h-24.9l-4.7,11.6h-4.7l19.2-47h5l19.2,47H346z M328.8,326.5L317.8,354H340L328.8,326.5z"
			/>
		<path class="st3" d="M390.1,369.2l-11.3-40.4l-11.3,40.4H363l-13.5-47h4.5l11.3,41.4l11.6-41.4h3.7l11.5,41.4l11.3-41.4h4.5
			l-13.4,47H390.1z"/>
	</g>
	<g id="Leaf">
		<path id="Wheel_1_" class="st8" d="M342,66.2c-3,0-6,0.2-8.9,0.6c-33,4.3-58.4,32.6-58.4,66.7c0,37.2,30.1,67.3,67.3,67.3
			c37.2,0,67.3-30.1,67.3-67.3C409.3,96.4,379.2,66.2,342,66.2z M342,195.7c-34.3,0-62.1-27.8-62.1-62.1s27.8-62.1,62.1-62.1
			s62.1,27.8,62.1,62.1S376.3,195.7,342,195.7z"/>
		<path class="st8" d="M342.2,76.5c-31.5,0-57.1,25.5-57.1,57.1s25.5,57.1,57.1,57.1s57.1-25.5,57.1-57.1S373.7,76.5,342.2,76.5z
			 M316.2,155c-5.3-6.6-2.8-14.5-4.9-22.3c-2-7.7-5.9-10.7-5.9-10.7s17.1,0,25.6,7.3c8.5,7.3,11.7,13.5,11.3,20.5
			c-0.4,7-4.8,13-4.8,13s-6.2-15.5-9.5-21.2c-4.7-8.1-15.5-15.6-15.5-15.6s9.8,8.3,14.8,18.8c4.6,9.5,6.7,18.9,6.7,18.9
			S322.4,162.7,316.2,155z M365.1,107.2c-2.1,9.8,4.8,22.4,1.5,33.3c-4,13.2-20.4,18.8-20.4,18.8s-1,3.9-3.2,7.7
			c-2.1,3.8-4.6,7-4.6,7s-0.8-1.1-1.9-0.9c-1.1,0.2-1.9-0.3-1.9-0.3s7.3-8,9.5-18.1c1.1-4.8,0.4-8.9,0.4-8.9s2.7-16,8.2-26.9
			c3.1-6.1,8.4-13.2,8.4-13.2s-4.7,3.8-10.4,14.5c-4.4,8.2-7.3,22.3-7.3,22.3s-1.8-5.7-6.2-10.1c-2.3-2.3-5.6-4.7-5.6-4.7
			s0.7-12.8,17.9-22c9-4.8,18.3-6.8,18.3-6.8l-1.8,1.7c0,0,1.1-0.5,2-0.8c0.9-0.3,1.8,0.1,1.8,0.1S366.5,100.8,365.1,107.2z"/>
	</g>
</g>
</svg>
