<?xml version="1.0" encoding="utf-8"?>
<!-- Generator: Adobe Illustrator 19.2.0, SVG Export Plug-In . SVG Version: 6.00 Build 0)  -->
<svg version="1.1" id="Layer_1" xmlns="http://www.w3.org/2000/svg" xmlns:xlink="http://www.w3.org/1999/xlink" x="0px" y="0px"
	 viewBox="0 0 284.2 284.2" style="enable-background:new 0 0 284.2 284.2;" xml:space="preserve">
<style type="text/css">
	.st0{fill:#FFFFFF;}
</style>
<g id="Icons">
	<path class="st0" d="M142.5,45.8c-53.2,0-96.3,43.1-96.3,96.3s43.1,96.3,96.3,96.3s96.3-43.1,96.3-96.3S195.6,45.8,142.5,45.8z
		 M98.6,178.4c-9-11.2-4.7-24.4-8.3-37.7c-3.5-13-9.9-18.1-9.9-18.1s28.8-0.1,43.2,12.3c14.4,12.3,19.7,22.8,19,34.6
		c-0.7,11.8-8.1,22-8.1,22s-10.4-26.2-16-35.8c-8-13.6-26.1-26.3-26.1-26.3s16.5,14,25,31.7c7.7,16.1,11.4,31.9,11.4,31.9
		S109,191.3,98.6,178.4z M181.1,97.6c-3.6,16.5,8.1,37.8,2.5,56.2c-6.8,22.3-34.4,31.7-34.4,31.7s-1.8,6.6-5.3,13
		c-3.6,6.4-7.8,11.9-7.8,11.9s-1.3-1.9-3.2-1.5s-3.3-0.6-3.3-0.6s12.3-13.5,16.1-30.6c1.8-8,0.6-15.1,0.6-15.1s4.6-27,13.9-45.4
		C165.4,107,174.4,95,174.4,95s-7.9,6.4-17.6,24.5c-7.4,13.8-12.4,37.7-12.4,37.7s-3-9.5-10.5-17c-3.9-3.9-9.5-8-9.5-8
		s1.2-21.7,30.2-37.2c15.3-8.2,30.9-11.5,30.9-11.5l-3,2.9c0,0,1.9-0.9,3.4-1.4s3.1,0.2,3.1,0.2S183.4,86.9,181.1,97.6z"/>
	<path class="st0" d="M284.2,147.6v-15.1l-29.5-5.6c-0.7-4.9-1.6-9.6-2.9-14.3l25.1-19.1l-5.8-13.9l-30.3,6.3
		c-3-5.2-6.3-10.1-10-14.7l15.5-26.6l-10.7-10.7l-25.5,17.3c-4-3-8.2-5.7-12.6-8.2l4.3-31.6l-13.9-5.8l-17.6,26.5
		c-4.6-1.2-9.4-2.1-14.2-2.7L148.3,0h-15.1l-5.6,29.4c-0.2,0-0.3,0-0.5,0.1c-4.8,0.6-9.5,1.6-14,2.8L94.3,7.7l-13.9,5.8l6.1,29.6
		c-4.3,2.4-8.5,5.1-12.4,8.1l-28-16.3L35.4,45.5l17.7,26.1c-2.9,3.7-5.7,7.6-8.1,11.7L13.1,79L7.3,92.9l25.8,17
		c-1.7,5.6-2.9,11.4-3.7,17.4L0,135.1v15l29.3,5.6c0.7,5.9,1.8,11.6,3.4,17.2L9.5,190.6l5.8,13.9l28.3-5.9c2.4,4.1,5,8.1,7.9,11.9
		l-15.1,26l10.7,10.7l24.1-16.4c4.4,3.5,9.1,6.7,14,9.6L81.3,269l13.9,5.8l15.4-23.5c5.6,1.6,11.4,2.8,17.3,3.5l7.8,29.4h15.1
		l5.6-29.4c5.8-0.7,11.4-1.9,16.9-3.5l18.1,23.7l13.9-5.8l-6-29c5-2.9,9.7-6.2,14.2-9.8l24.6,14.3l10.7-10.7l-16-23.5
		c3.6-4.7,6.8-9.7,9.6-15l28.5,3.8l5.8-13.9l-24.3-15.9c1.1-4.6,2-9.3,2.5-14.1L284.2,147.6z M246.9,142.1
		c0,57.9-46.9,104.8-104.8,104.8S37.3,200,37.3,142.1S84.2,37.3,142.1,37.3S246.9,84.2,246.9,142.1z"/>
</g>
</svg>
