<?xml version="1.0" encoding="utf-8"?>
<!-- Generator: Adobe Illustrator 19.2.0, SVG Export Plug-In . SVG Version: 6.00 Build 0)  -->
<svg version="1.1" id="Layer_1" xmlns="http://www.w3.org/2000/svg" xmlns:xlink="http://www.w3.org/1999/xlink" x="0px" y="0px"
	 viewBox="0 0 340 467.3" style="enable-background:new 0 0 340 467.3;" xml:space="preserve">
<style type="text/css">
	.st0{fill:#FFFFFF;}
</style>
<g id="Law">
	<g>
		<path class="st0" d="M63,371l4.7-6.5c3.3,3.5,8.5,6.6,15.1,6.6c6.9,0,9.6-3.4,9.6-6.5c0-4.3-5.1-5.6-10.9-7.1
			c-7.8-1.9-17-4.2-17-14.4c0-7.9,7-14,17.4-14c7.5,0,13.5,2.4,17.9,6.7L95,342c-3.7-3.7-8.8-5.5-13.9-5.5c-5,0-8.1,2.4-8.1,6
			c0,3.7,4.9,5,10.6,6.4c7.9,2,17.3,4.5,17.3,14.9c0,8-5.6,14.8-18.5,14.8C73.7,378.6,67.3,375.5,63,371z"/>
		<path class="st0" d="M108.8,377.7v-47.9h32.8v7.4h-24.4v12.4h23.9v7.4h-23.9v13.3h24.4v7.4L108.8,377.7L108.8,377.7z"/>
		<path class="st0" d="M183.6,377.7l-25-34.2v34.2h-8.4v-47.9h8.6l24.5,33.2v-33.2h8.4v47.9H183.6z"/>
		<path class="st0" d="M201.9,377.7v-47.9h32.8v7.4h-24.4v12.4h23.9v7.4h-23.9v13.3h24.4v7.4L201.9,377.7L201.9,377.7z"/>
		<path class="st0" d="M275.3,377.7L261.9,359l-13.4,18.7h-10l17.9-24.5l-16.9-23.3h10l12.3,17.6l12.3-17.6h10.1l-16.8,23.3
			l17.9,24.6h-10V377.7z"/>
		<path class="st0" d="M32,441.5V399h16c8.2,0,12.8,5.7,12.8,12.4s-4.7,12.4-12.8,12.4H35.6v17.7H32z M57,411.4
			c0-5.4-3.8-9.1-9.4-9.1h-12v18.2h11.9C53.2,420.5,57,416.8,57,411.4z"/>
		<path class="st0" d="M66.8,420.3c0-12.4,8.2-22,20.7-22c12.4,0,20.7,9.6,20.7,22s-8.2,22-20.7,22S66.8,432.7,66.8,420.3z
			 M104.4,420.3c0-10.8-6.6-18.7-16.8-18.7c-10.3,0-16.8,7.8-16.8,18.7c0,10.7,6.5,18.7,16.8,18.7C97.7,439,104.4,431,104.4,420.3z"
			/>
		<path class="st0" d="M148.5,441.5l-10.2-36.6l-10.2,36.6H124L111.8,399h4.1l10.3,37.5l10.5-37.5h3.3l10.4,37.5l10.3-37.5h4.1
			l-12.1,42.6h-4.2V441.5z"/>
		<path class="st0" d="M171.2,441.5V399h27v3.3h-23.4V418h22.9v3.3h-22.9v16.8h23.4v3.3h-27V441.5z"/>
		<path class="st0" d="M232.2,441.5l-11.9-17.6h-9.4v17.6h-3.6V399h15.9c7.3,0,13,4.7,13,12.4c0,7.7-5.5,12-11.8,12.3l12.3,17.9
			L232.2,441.5L232.2,441.5z M232.2,411.4c0-5.4-3.8-9.1-9.4-9.1h-11.9v18.3h11.9C228.4,420.6,232.2,416.8,232.2,411.4z"/>
		<path class="st0" d="M245.1,441.5V399h27v3.3h-23.4V418h22.9v3.3h-22.9v16.8h23.4v3.3h-27V441.5z"/>
		<path class="st0" d="M281.1,441.5V399h13.6c13.2,0,21.5,9.6,21.5,21.3c0,11.8-8.3,21.2-21.5,21.2H281.1z M312.4,420.3
			c0-10-6.4-18-17.7-18h-10v35.9h10C305.9,438.2,312.4,430.2,312.4,420.3z"/>
	</g>
</g>
<g id="Icons">
	<path class="st0" d="M170.4,67.7c-53.2,0-96.3,43.1-96.3,96.3s43.1,96.3,96.3,96.3s96.3-43.1,96.3-96.3S223.5,67.7,170.4,67.7z
		 M126.5,200.3c-9-11.2-4.7-24.4-8.3-37.7c-3.5-13-9.9-18.1-9.9-18.1s28.8-0.1,43.2,12.3c14.4,12.3,19.7,22.8,19,34.6
		c-0.7,11.8-8.1,22-8.1,22s-10.4-26.2-16-35.8c-8-13.6-26.1-26.3-26.1-26.3s16.5,14,25,31.7c7.7,16.1,11.4,31.9,11.4,31.9
		S136.9,213.2,126.5,200.3z M209,119.5c-3.6,16.5,8.1,37.8,2.5,56.2c-6.8,22.3-34.4,31.7-34.4,31.7s-1.8,6.6-5.3,13
		c-3.6,6.4-7.8,11.9-7.8,11.9s-1.3-1.9-3.2-1.5s-3.3-0.6-3.3-0.6s12.3-13.5,16.1-30.6c1.8-8,0.6-15.1,0.6-15.1s4.6-27,13.9-45.4
		c5.2-10.2,14.2-22.2,14.2-22.2s-7.9,6.4-17.6,24.5c-7.4,13.8-12.4,37.7-12.4,37.7s-3-9.5-10.5-17c-3.9-3.9-9.5-8-9.5-8
		s1.2-21.7,30.2-37.2c15.3-8.2,30.9-11.5,30.9-11.5l-3,2.9c0,0,1.9-0.9,3.4-1.4s3.1,0.2,3.1,0.2S211.3,108.8,209,119.5z"/>
	<path class="st0" d="M312.1,169.5v-15.1l-29.5-5.6c-0.7-4.9-1.6-9.6-2.9-14.3l25.1-19.1l-5.8-13.9l-30.3,6.3
		c-3-5.2-6.3-10.1-10-14.7l15.5-26.6l-10.7-10.7L238,73.1c-4-3-8.2-5.7-12.6-8.2l4.3-31.6l-13.9-5.8L198.2,54
		c-4.6-1.2-9.4-2.1-14.2-2.7l-7.8-29.4h-15.1l-5.6,29.4c-0.2,0-0.3,0-0.5,0.1c-4.8,0.6-9.5,1.6-14,2.8l-18.8-24.6l-13.9,5.8
		l6.1,29.6c-4.3,2.4-8.5,5.1-12.4,8.1L74,56.8L63.3,67.4L81,93.5c-2.9,3.7-5.7,7.6-8.1,11.7L41,100.9l-5.8,13.9l25.8,17
		c-1.7,5.6-2.9,11.4-3.7,17.4L27.9,157v15l29.3,5.6c0.7,5.9,1.8,11.6,3.4,17.2l-23.2,17.7l5.8,13.9l28.3-5.9c2.4,4.1,5,8.1,7.9,11.9
		l-15.1,26L75,269.1l24.1-16.4c4.4,3.5,9.1,6.7,14,9.6l-3.9,28.6l13.9,5.8l15.4-23.5c5.6,1.6,11.4,2.8,17.3,3.5l7.8,29.4h15.1
		l5.6-29.4c5.8-0.7,11.4-1.9,16.9-3.5l18.1,23.7l13.9-5.8l-6-29c5-2.9,9.7-6.2,14.2-9.8l24.6,14.3l10.7-10.7l-16-23.5
		c3.6-4.7,6.8-9.7,9.6-15l28.5,3.8l5.8-13.9l-24.3-15.9c1.1-4.6,2-9.3,2.5-14.1L312.1,169.5z M274.8,164
		c0,57.9-46.9,104.8-104.8,104.8S65.2,221.9,65.2,164S112.1,59.2,170,59.2S274.8,106.1,274.8,164z"/>
</g>
</svg>
