<?xml version="1.0" encoding="utf-8"?>
<!-- Generator: Adobe Illustrator 19.2.0, SVG Export Plug-In . SVG Version: 6.00 Build 0)  -->
<svg version="1.1" id="Layer_1" xmlns="http://www.w3.org/2000/svg" xmlns:xlink="http://www.w3.org/1999/xlink" x="0px" y="0px"
	 viewBox="0 0 260.6 260.7" style="enable-background:new 0 0 260.6 260.7;" xml:space="preserve">
<style type="text/css">
	.st0{fill:#FFFFFF;}
	.st1{display:none;fill:#FFFFFF;}
</style>
<g id="Icons">
	<path id="Wheel_3_" class="st0" d="M130.3,0c-5.8,0-11.5,0.4-17.2,1.1C49.3,9.6,0,64.2,0,130.4c0,72,58.3,130.3,130.3,130.3
		s130.3-58.4,130.3-130.3C260.6,58.4,202.3,0,130.3,0z M130.3,250.7C63.8,250.7,10,196.8,10,130.4S63.8,10.1,130.3,10.1
		S250.6,64,250.6,130.4S196.8,250.7,130.3,250.7z"/>
	<path class="st0" d="M130.7,19.8c-61,0-110.5,49.5-110.5,110.5s49.5,110.5,110.5,110.5s110.5-49.5,110.5-110.5
		S191.7,19.8,130.7,19.8z M80.3,172c-10.3-12.9-5.4-28.1-9.5-43.2c-4-14.9-11.4-20.7-11.4-20.7s33.1-0.1,49.6,14.1
		c16.5,14.1,22.6,26.1,21.8,39.7c-0.8,13.6-9.3,25.2-9.3,25.2S109.6,157,103.1,146c-9.1-15.6-30-30.2-30-30.2s18.9,16,28.7,36.4
		c8.9,18.5,13,36.6,13,36.6S92.3,186.9,80.3,172z M175.1,79.3c-4.1,18.9,9.3,43.4,2.9,64.5c-7.8,25.5-39.5,36.4-39.5,36.4
		s-2,7.6-6.1,15s-9,13.6-9,13.6s-1.5-2.2-3.7-1.7s-3.7-0.7-3.7-0.7s14.1-15.5,18.5-35.1c2.1-9.2,0.7-17.3,0.7-17.3s5.2-31,16-52.1
		c6-11.7,16.3-25.5,16.3-25.5s-9.1,7.4-20.2,28.2c-8.5,15.9-14.2,43.3-14.2,43.3s-3.5-11-12-19.5c-4.5-4.5-10.9-9.1-10.9-9.1
		s1.4-24.9,34.6-42.7c17.5-9.4,35.5-13.3,35.5-13.3l-3.4,3.3c0,0,2.2-1.1,3.9-1.6s3.5,0.2,3.5,0.2S177.7,67.1,175.1,79.3z"/>
	<path class="st1" d="M130.7,34.1c-53.2,0-96.3,43.1-96.3,96.3s43.1,96.3,96.3,96.3s96.3-43.1,96.3-96.3S183.8,34.1,130.7,34.1z
		 M86.8,166.6c-9-11.2-4.7-24.4-8.3-37.7c-3.5-13-9.9-18.1-9.9-18.1s28.8-0.1,43.2,12.3c14.4,12.3,19.7,22.8,19,34.6s-8.1,22-8.1,22
		s-10.4-26.2-16-35.8c-8-13.6-26.1-26.3-26.1-26.3s16.5,14,25,31.7c7.7,16.1,11.4,31.9,11.4,31.9S97.2,179.6,86.8,166.6z
		 M169.3,85.9c-3.6,16.5,8.1,37.8,2.5,56.2c-6.8,22.3-34.4,31.7-34.4,31.7s-1.8,6.6-5.3,13c-3.6,6.4-7.8,11.9-7.8,11.9
		s-1.3-1.9-3.2-1.5s-3.3-0.6-3.3-0.6s12.3-13.5,16.1-30.6c1.8-8,0.6-15.1,0.6-15.1s4.6-27,13.9-45.4c5.2-10.2,14.2-22.2,14.2-22.2
		s-7.9,6.4-17.6,24.5c-7.4,13.8-12.4,37.7-12.4,37.7s-3-9.5-10.5-17c-3.9-3.9-9.5-8-9.5-8s1.2-21.7,30.2-37.2
		c15.3-8.2,30.9-11.5,30.9-11.5l-3,2.9c0,0,1.9-0.9,3.4-1.4s3.1,0.2,3.1,0.2S171.6,75.2,169.3,85.9z"/>
	<path class="st1" d="M272.4,135.9v-15.1l-29.5-5.6c-0.7-4.9-1.6-9.6-2.9-14.3l25.1-19.1l-5.8-13.9L229,74.2
		c-3-5.2-6.3-10.1-10-14.7l15.5-26.6l-10.7-10.7l-25.5,17.2c-4-3-8.2-5.7-12.6-8.2L190-0.4l-13.9-5.8l-17.4,26.6
		c-4.6-1.2-9.4-2.1-14.2-2.7l-7.8-29.4h-15.1L116,17.7c-0.2,0-0.3,0-0.5,0.1c-4.8,0.6-9.5,1.6-14,2.8L82.7-4L68.6,1.7l6.1,29.6
		c-4.3,2.4-8.5,5.1-12.4,8.1l-28-16.3L23.6,33.8l17.7,26.1c-2.9,3.7-5.7,7.6-8.1,11.7L1.3,67.2l-5.8,13.9l25.8,17
		c-1.7,5.6-2.9,11.4-3.7,17.4l-29.5,7.8v15.1l29.3,5.6c0.7,5.9,1.8,11.6,3.4,17.2l-23.2,17.7l5.8,13.9l28.3-5.9
		c2.4,4.1,5,8.1,7.9,11.9l-15.1,26l10.8,10.7l24.1-16.4c4.4,3.5,9.1,6.7,14,9.6l-3.9,28.6l13.9,5.8l15.4-23.5
		c5.6,1.6,11.4,2.8,17.3,3.5l7.8,29.4H139l5.6-29.4c5.8-0.7,11.4-1.9,16.9-3.5l18.1,23.7l13.9-5.8l-6-29c5-2.9,9.7-6.2,14.2-9.8
		l24.6,14.3l10.7-10.7l-16-23.5c3.6-4.7,6.8-9.7,9.6-15l28.5,3.8l5.8-13.9l-24.4-16c1.1-4.6,2-9.3,2.5-14.1L272.4,135.9z
		 M235.1,130.4c0,57.9-46.9,104.8-104.8,104.8S25.5,188.3,25.5,130.4S72.4,25.6,130.3,25.6S235.1,72.5,235.1,130.4z"/>
</g>
</svg>
