<?xml version="1.0" encoding="utf-8"?>
<!-- Generator: Adobe Illustrator 19.2.0, SVG Export Plug-In . SVG Version: 6.00 Build 0)  -->
<svg version="1.1" id="Layer_1" xmlns="http://www.w3.org/2000/svg" xmlns:xlink="http://www.w3.org/1999/xlink" x="0px" y="0px"
	 viewBox="0 0 360 440" style="enable-background:new 0 0 360 440;" xml:space="preserve">
<style type="text/css">
	.st0{fill:#FFFFFF;}
	.st1{display:none;fill:#FFFFFF;}
</style>
<g id="Law">
	<g>
		<path class="st0" d="M73,386.6l4.7-6.5c3.3,3.5,8.5,6.6,15.1,6.6c6.9,0,9.6-3.4,9.6-6.5c0-4.3-5.1-5.6-10.9-7.1
			c-7.8-1.9-17-4.2-17-14.4c0-7.9,7-14,17.4-14c7.5,0,13.5,2.4,17.9,6.7l-4.8,6.2c-3.7-3.7-8.8-5.5-13.9-5.5c-5,0-8.1,2.4-8.1,6
			c0,3.7,4.9,5,10.6,6.4c7.9,2,17.3,4.5,17.3,14.9c0,8-5.6,14.8-18.5,14.8C83.7,394.2,77.3,391.1,73,386.6z"/>
		<path class="st0" d="M118.8,393.4v-47.9h32.8v7.4h-24.4v12.4h23.9v7.4h-23.9V386h24.4v7.4H118.8z"/>
		<path class="st0" d="M193.6,393.4l-25-34.2v34.2h-8.4v-47.9h8.6l24.5,33.2v-33.2h8.4v47.9H193.6z"/>
		<path class="st0" d="M211.9,393.4v-47.9h32.8v7.4h-24.4v12.4h23.9v7.4h-23.9V386h24.4v7.4H211.9z"/>
		<path class="st0" d="M285.3,393.4l-13.4-18.7l-13.4,18.7h-10l17.9-24.5l-16.9-23.3h10l12.3,17.6l12.3-17.6h10.1l-16.8,23.3
			l17.9,24.6h-10V393.4z"/>
	</g>
</g>
<g id="Icons">
	<path id="Wheel_3_" class="st0" d="M180,49.3c-5.8,0-11.5,0.4-17.2,1.1C99,58.9,49.7,113.5,49.7,179.7C49.7,251.7,108,310,180,310
		s130.3-58.4,130.3-130.3C310.3,107.7,252,49.3,180,49.3z M180,300c-66.5,0-120.3-53.9-120.3-120.3S113.5,59.4,180,59.4
		s120.3,53.9,120.3,120.3S246.5,300,180,300z"/>
	<path class="st0" d="M180.4,69.1c-61,0-110.5,49.5-110.5,110.5s49.5,110.5,110.5,110.5s110.5-49.5,110.5-110.5
		S241.4,69.1,180.4,69.1z M130,221.3c-10.3-12.9-5.4-28.1-9.5-43.2c-4-14.9-11.4-20.7-11.4-20.7s33.1-0.1,49.6,14.1
		c16.5,14.1,22.6,26.1,21.8,39.7c-0.8,13.6-9.3,25.2-9.3,25.2s-11.9-30.1-18.4-41.1c-9.1-15.6-30-30.2-30-30.2s18.9,16,28.7,36.4
		c8.9,18.5,13,36.6,13,36.6S142,236.2,130,221.3z M224.8,128.6c-4.1,18.9,9.3,43.4,2.9,64.5c-7.8,25.5-39.5,36.4-39.5,36.4
		s-2,7.6-6.1,15s-9,13.6-9,13.6s-1.5-2.2-3.7-1.7s-3.7-0.7-3.7-0.7s14.1-15.5,18.5-35.1c2.1-9.2,0.7-17.3,0.7-17.3s5.2-31,16-52.1
		c6-11.7,16.3-25.5,16.3-25.5s-9.1,7.4-20.2,28.2c-8.5,15.9-14.2,43.3-14.2,43.3s-3.5-11-12-19.5c-4.5-4.5-10.9-9.1-10.9-9.1
		s1.4-24.9,34.6-42.7c17.5-9.4,35.5-13.3,35.5-13.3l-3.4,3.3c0,0,2.2-1.1,3.9-1.6s3.5,0.2,3.5,0.2S227.4,116.4,224.8,128.6z"/>
	<path class="st1" d="M180.4,83.4c-53.2,0-96.3,43.1-96.3,96.3s43.1,96.3,96.3,96.3s96.3-43.1,96.3-96.3S233.5,83.4,180.4,83.4z
		 M136.5,215.9c-9-11.2-4.7-24.4-8.3-37.7c-3.5-13-9.9-18.1-9.9-18.1s28.8-0.1,43.2,12.3c14.4,12.3,19.7,22.8,19,34.6
		s-8.1,22-8.1,22s-10.4-26.2-16-35.8c-8-13.6-26.1-26.3-26.1-26.3s16.5,14,25,31.7c7.7,16.1,11.4,31.9,11.4,31.9
		S146.9,228.9,136.5,215.9z M219,135.2c-3.6,16.5,8.1,37.8,2.5,56.2c-6.8,22.3-34.4,31.7-34.4,31.7s-1.8,6.6-5.3,13
		c-3.6,6.4-7.8,11.9-7.8,11.9s-1.3-1.9-3.2-1.5s-3.3-0.6-3.3-0.6s12.3-13.5,16.1-30.6c1.8-8,0.6-15.1,0.6-15.1s4.6-27,13.9-45.4
		c5.2-10.2,14.2-22.2,14.2-22.2s-7.9,6.4-17.6,24.5c-7.4,13.8-12.4,37.7-12.4,37.7s-3-9.5-10.5-17c-3.9-3.9-9.5-8-9.5-8
		s1.2-21.7,30.2-37.2c15.3-8.2,30.9-11.5,30.9-11.5l-3,2.9c0,0,1.9-0.9,3.4-1.4s3.1,0.2,3.1,0.2S221.3,124.5,219,135.2z"/>
	<path class="st1" d="M322.1,185.2v-15.1l-29.5-5.6c-0.7-4.9-1.6-9.6-2.9-14.3l25.1-19.1l-5.8-13.9l-30.3,6.3
		c-3-5.2-6.3-10.1-10-14.7l15.5-26.6l-10.7-10.7L248,88.7c-4-3-8.2-5.7-12.6-8.2l4.3-31.6l-13.9-5.8l-17.4,26.6
		c-4.6-1.2-9.4-2.1-14.2-2.7l-7.8-29.4h-15.1L165.7,67c-0.2,0-0.3,0-0.5,0.1c-4.8,0.6-9.5,1.6-14,2.8l-18.8-24.6L118.3,51l6.1,29.6
		c-4.3,2.4-8.5,5.1-12.4,8.1L84,72.4L73.3,83.1L91,109.2c-2.9,3.7-5.7,7.6-8.1,11.7L51,116.5l-5.8,13.9l25.8,17
		c-1.7,5.6-2.9,11.4-3.7,17.4l-29.5,7.8v15.1l29.3,5.6c0.7,5.9,1.8,11.6,3.4,17.2l-23.2,17.7l5.8,13.9l28.3-5.9
		c2.4,4.1,5,8.1,7.9,11.9l-15.1,26L85,284.8l24.1-16.4c4.4,3.5,9.1,6.7,14,9.6l-3.9,28.6l13.9,5.8l15.4-23.5
		c5.6,1.6,11.4,2.8,17.3,3.5l7.8,29.4h15.1l5.6-29.4c5.8-0.7,11.4-1.9,16.9-3.5l18.1,23.7l13.9-5.8l-6-29c5-2.9,9.7-6.2,14.2-9.8
		l24.6,14.3l10.7-10.7l-16-23.5c3.6-4.7,6.8-9.7,9.6-15l28.5,3.8l5.8-13.9l-24.4-16c1.1-4.6,2-9.3,2.5-14.1L322.1,185.2z
		 M284.8,179.7c0,57.9-46.9,104.8-104.8,104.8S75.2,237.6,75.2,179.7S122.1,74.9,180,74.9S284.8,121.8,284.8,179.7z"/>
</g>
</svg>
