<?xml version="1.0" encoding="utf-8"?>
<!-- Generator: Adobe Illustrator 19.2.0, SVG Export Plug-In . SVG Version: 6.00 Build 0)  -->
<svg version="1.1" id="Layer_1" xmlns="http://www.w3.org/2000/svg" xmlns:xlink="http://www.w3.org/1999/xlink" x="0px" y="0px"
	 viewBox="0 0 587.1 538.1" style="enable-background:new 0 0 587.1 538.1;" xml:space="preserve">
<style type="text/css">
	.st0{fill:#57C1E8;}
	.st1{fill:#FFFFFF;}
	.st2{font-family:'ProximaNova-Semibold';}
	.st3{font-size:98.8088px;}
	.st4{font-family:'ProximaNova-Light';}
	.st5{font-size:87.83px;}
	.st6{fill-rule:evenodd;clip-rule:evenodd;fill:#FFFFFF;}
</style>
<rect id="Blue_Square" class="st0" width="587.1" height="538.1"/>
<text transform="matrix(1 0 0 1 200.9294 372.3256)"><tspan x="0" y="0" class="st1 st2 st3">SENEX</tspan><tspan x="131.9" y="87.8" class="st1 st4 st5">LAW</tspan></text>
<path id="Wheel_1_" class="st6" d="M426.2,82.6c-3.7,0-7.4,0.2-11,0.7c-41.1,5.4-72.8,40.6-72.8,83.1c0,46.3,37.5,83.9,83.9,83.9
	c46.3,0,83.9-37.5,83.9-83.9C510.1,120.1,472.6,82.6,426.2,82.6z M426.2,243.8c-42.8,0-77.4-34.7-77.4-77.4S383.5,89,426.2,89
	s77.4,34.7,77.4,77.4S469,243.8,426.2,243.8z"/>
<path class="st6" d="M426.5,95.3c-39.3,0-71.1,31.8-71.1,71.1s31.8,71.1,71.1,71.1s71.1-31.8,71.1-71.1S465.8,95.3,426.5,95.3z
	 M394.1,193.2c-6.6-8.3-3.5-18.1-6.1-27.8c-2.6-9.6-7.3-13.3-7.3-13.3s21.3,0,31.9,9.1c10.6,9.1,14.5,16.8,14,25.5
	c-0.5,8.7-6,16.2-6,16.2s-7.7-19.3-11.8-26.5c-5.9-10-19.3-19.4-19.3-19.4s12.2,10.3,18.5,23.4c5.7,11.9,8.4,23.5,8.4,23.5
	S401.8,202.8,394.1,193.2z M455,133.6c-2.6,12.2,6,27.9,1.8,41.5c-5,16.4-25.4,23.4-25.4,23.4s-1.3,4.9-3.9,9.6
	c-2.6,4.7-5.8,8.8-5.8,8.8s-1-1.4-2.4-1.1c-1.4,0.3-2.4-0.4-2.4-0.4s9-10,11.9-22.6c1.3-5.9,0.5-11.1,0.5-11.1s3.4-19.9,10.3-33.5
	c3.8-7.5,10.5-16.4,10.5-16.4s-5.8,4.8-13,18.1c-5.5,10.2-9.1,27.8-9.1,27.8s-2.2-7-7.7-12.5c-2.9-2.9-7-5.9-7-5.9s0.9-16,22.3-27.5
	c11.3-6,22.8-8.5,22.8-8.5l-2.2,2.2c0,0,1.4-0.7,2.5-1c1.1-0.3,2.3,0.1,2.3,0.1S456.7,125.7,455,133.6z"/>
</svg>
