<?xml version="1.0" encoding="utf-8"?>
<!-- Generator: Adobe Illustrator 19.2.0, SVG Export Plug-In . SVG Version: 6.00 Build 0)  -->
<svg version="1.1" id="Layer_1" xmlns="http://www.w3.org/2000/svg" xmlns:xlink="http://www.w3.org/1999/xlink" x="0px" y="0px"
	 viewBox="0 0 794.5 230" style="enable-background:new 0 0 794.5 230;" xml:space="preserve">
<style type="text/css">
	.st0{fill:#FFFFFF;}
</style>
<g>
	<path class="st0" d="M6.3,20.9c0-11.2,0-13.2-0.1-15.6C6,2.9,5.4,1.7,3,1.2C2.4,1.1,1.2,1,0.6,1C0.3,1,0,0.9,0,0.6
		C0,0.1,0.4,0,1.2,0c3.2,0,7.8,0.2,8.1,0.2C11,0.2,13.8,0,17.1,0c11.8,0,14.4,7.2,14.4,10.8c0,5.9-3.4,9.4-6.8,13
		c5.3,1.7,12.5,6.8,12.5,15.2c0,7.7-6,15.7-18.4,15.7c-0.8,0-3.1-0.1-5.2-0.2c-2.1-0.1-4.1-0.2-4.4-0.2c-0.1,0-1.4,0-2.9,0.1
		c-1.4,0-3.1,0.1-4.2,0.1c-0.8,0-1.2-0.1-1.2-0.6c0-0.2,0.1-0.4,0.6-0.4c0.6,0,1.5-0.1,2.2-0.3c1.4-0.3,1.8-1.9,2.1-4
		c0.4-3,0.4-8.7,0.4-15.6V20.9z M12,22.5c0,0.5,0.1,0.6,0.5,0.8c0.4,0.1,1.7,0.3,4.4,0.3c4,0,5-0.1,6.6-1.9c1.5-1.7,2.6-4.3,2.6-7.3
		c0-6-2.7-12.4-9.7-12.4c-0.8,0-2.3,0.1-3.5,0.4C12.2,2.5,12,2.7,12,3.2V22.5z M12,30.1c0,5.5,0,14.5,0.1,15.6
		c0.2,3.5,0.2,4.5,2.4,5.6c1.9,0.9,5,1.1,6.3,1.1c3.9,0,10.2-2.1,10.2-10.2c0-4.3-1.4-10.6-7-14.4c-2.4-1.7-4.2-1.9-6-2.1
		c-0.9-0.1-4.5-0.1-5.6-0.1c-0.3,0-0.4,0.1-0.4,0.5V30.1z"/>
	<path class="st0" d="M52.9,25.9c0-9.5,0-11.2-0.1-13.2c-0.1-2.1-0.5-3.1-2.6-3.4c-0.5-0.1-1.6-0.1-2.2-0.1c-0.2,0-0.5-0.3-0.5-0.5
		c0-0.4,0.3-0.5,1-0.5c2.9,0,7.1,0.1,7.5,0.1c0.6,0,6-0.1,7.9-0.1c4,0,8.5,0.4,11.8,2.7c1.6,1.2,4.4,4.1,4.4,8.4
		c0,4.5-1.9,8.9-7.8,14c5.2,6.5,9.6,12,13.2,15.8c3.4,3.5,5.5,4,7.1,4.2c1.2,0.2,1.9,0.2,2.2,0.2s0.6,0.3,0.6,0.5
		c0,0.4-0.4,0.5-1.5,0.5h-4c-3.6,0-5.2-0.4-6.8-1.2c-2.7-1.4-5-4.4-8.6-9c-2.7-3.3-5.5-7.3-6.8-8.9c-0.3-0.3-0.4-0.4-0.9-0.4
		l-8.1-0.1c-0.3,0-0.4,0.1-0.4,0.5v1.4c0,5.9,0,10.7,0.3,13.2c0.2,1.8,0.6,3,2.5,3.2c0.9,0.1,2.2,0.3,2.8,0.3c0.4,0,0.5,0.3,0.5,0.5
		c0,0.3-0.3,0.5-1,0.5c-3.5,0-7.5-0.2-7.8-0.2c-0.1,0-4.3,0.2-6.3,0.2c-0.6,0-1-0.1-1-0.5c0-0.2,0.1-0.5,0.5-0.5
		c0.6,0,1.4-0.1,1.9-0.3c1.2-0.3,1.4-1.4,1.7-3.2c0.4-2.5,0.4-7.3,0.4-13.2V25.9z M58.4,31c0,0.4,0.1,0.6,0.4,0.8
		c0.9,0.5,4.2,0.9,7,0.9c1.5,0,3.2-0.1,4.8-1.1c2.2-1.4,3.8-4.7,3.8-9.4c0-7.6-4.2-12-10.9-12c-1.9,0-3.9,0.2-4.5,0.4
		c-0.3,0.1-0.5,0.4-0.5,0.7V31z"/>
	<path class="st0" d="M120.2,7.3c14.3,0,25.1,8.7,25.1,23c0,13.7-10.2,25-25.4,25c-17.4,0-24.8-13-24.8-24.1
		C95.1,21.3,102.7,7.3,120.2,7.3z M121.7,52.7c5.7,0,17.1-3,17.1-20.7c0-14.7-8.9-22.4-18.9-22.4c-10.6,0-18.2,6.6-18.2,19.9
		C101.7,43.8,110.2,52.7,121.7,52.7z"/>
	<path class="st0" d="M199.5,45.4h0.3c1.6-5,7.3-22.8,9.5-30.6c0.6-2.3,0.7-3,0.7-3.8c0-1.1-0.5-1.8-3.4-1.8c-0.4,0-0.6-0.4-0.6-0.6
		c0-0.3,0.3-0.4,1.1-0.4c3.2,0,5.9,0.1,6.5,0.1c0.4,0,3.2-0.1,5.1-0.1c0.6,0,0.9,0.1,0.9,0.4c0,0.3-0.1,0.6-0.6,0.6
		c-0.2,0-1.4,0.1-2.2,0.3c-1.9,0.6-2.9,3.1-4.1,6.5c-2.8,7.8-9.1,27.2-11.6,34.1c-1.7,4.5-2,5.3-2.7,5.3c-0.6,0-1.2-0.8-2.1-3.2
		L184,18.6c-2.2,5.3-10.7,27.7-13,33.4c-1.1,2.6-1.5,3.2-2.2,3.2c-0.6,0-1.2-0.6-2.4-4.8L155,14.1c-1-3.2-1.7-4-3.3-4.6
		c-0.9-0.3-2.4-0.4-2.9-0.4c-0.3,0-0.6-0.2-0.6-0.6c0-0.3,0.4-0.4,1-0.4c3.3,0,6.8,0.1,7.5,0.1c0.6,0,3.5-0.1,6.6-0.1
		c0.9,0,1.2,0.1,1.2,0.4c0,0.4-0.4,0.6-0.6,0.6c-0.5,0-1.5,0-2.2,0.4c-0.4,0.1-0.9,0.5-0.9,1.3c0,0.8,0.5,3,1.2,5.7
		c1,3.9,7.5,26.4,8.3,28.9h0.1l13.2-34.2c0.9-2.4,1.4-2.8,1.7-2.8c0.4,0,0.9,0.8,1.7,2.9L199.5,45.4z"/>
	<path class="st0" d="M232.5,46.1c0.1,5,0.7,6.6,2.4,7c1.2,0.3,2.6,0.4,3.2,0.4c0.3,0,0.5,0.2,0.5,0.5c0,0.4-0.4,0.5-1.2,0.5
		c-3.6,0-6.1-0.2-6.7-0.2c-0.6,0-3.2,0.2-6.1,0.2c-0.6,0-1-0.1-1-0.5c0-0.3,0.2-0.5,0.5-0.5c0.5,0,1.7-0.1,2.6-0.4
		c1.6-0.4,1.8-2.1,1.8-7.6V10.4c0-2.4,0.4-3.1,0.9-3.1c0.7,0,1.8,1.2,2.4,1.9c1,1,10.2,10.8,20,20.9c6.3,6.5,13,13.8,15,15.8
		l-0.6-30.7c-0.1-4-0.4-5.3-2.4-5.7c-1.2-0.2-2.6-0.3-3.1-0.3c-0.4,0-0.5-0.4-0.5-0.6c0-0.4,0.5-0.4,1.2-0.4c2.9,0,5.9,0.1,6.6,0.1
		c0.7,0,2.8-0.1,5.4-0.1c0.6,0,1.2,0.1,1.2,0.4c0,0.2-0.3,0.6-0.7,0.6c-0.3,0-0.8,0-1.5,0.1c-2.1,0.4-2.2,1.7-2.2,5.3L270,50.5
		c0,4-0.1,4.4-0.5,4.4c-0.6,0-1.3-0.5-4.8-3.7c-0.6-0.6-9.8-9.6-16.5-16.6c-7.3-7.7-14.5-15.2-16.4-17.4L232.5,46.1z"/>
	<path class="st0" d="M294.1,36.8c0,9,0.1,12.7,1.3,13.8c1,1,3.5,1.4,8.4,1.4c3.3,0,6.1-0.1,7.6-1.9c0.8-0.9,1.3-2.2,1.5-3.5
		c0.1-0.4,0.3-0.8,0.6-0.8c0.3,0,0.4,0.3,0.4,0.9c0,0.6-0.4,4.3-0.9,6.1c-0.4,1.4-0.6,1.7-4,1.7c-4.5,0-8.1-0.1-11-0.2
		c-2.9-0.1-5-0.1-6.9-0.1c-0.3,0-1.4,0-2.6,0.1c-1.3,0.1-2.7,0.1-3.7,0.1c-0.6,0-1-0.1-1-0.5c0-0.2,0.1-0.5,0.5-0.5
		c0.6,0,1.4-0.1,1.9-0.3c1.2-0.3,1.4-1.4,1.7-3.2c0.4-2.5,0.4-7.3,0.4-13.2V25.9c0-9.5,0-11.2-0.1-13.2c-0.1-2.1-0.5-3.1-2.6-3.4
		c-0.5-0.1-1.6-0.1-2.2-0.1c-0.2,0-0.5-0.3-0.5-0.5c0-0.4,0.3-0.5,1-0.5c2.9,0,6.8,0.1,7.2,0.1c0.3,0,5-0.1,7-0.1c0.6,0,1,0.1,1,0.5
		c0,0.2-0.3,0.4-0.5,0.4c-0.4,0-1.4,0.1-2.1,0.1c-1.9,0.4-2.2,1.3-2.4,3.5c-0.1,1.9-0.1,3.7-0.1,13.2V36.8z"/>
	<path class="st0" d="M326.9,25.9c0-9.5,0-11.2-0.1-13.2c-0.1-2.1-0.5-3.1-2.6-3.4c-0.5-0.1-1.6-0.1-2.2-0.1c-0.2,0-0.5-0.3-0.5-0.5
		c0-0.4,0.3-0.5,1-0.5c2.9,0,7,0.1,7.3,0.1c0.4,0,13.7,0.1,15.1,0c1.2-0.1,2.4-0.3,2.9-0.4c0.3-0.1,0.6-0.3,0.9-0.3
		c0.2,0,0.3,0.3,0.3,0.6c0,0.4-0.4,1.2-0.5,2.9c-0.1,0.6-0.2,3.3-0.4,4c-0.1,0.3-0.3,0.6-0.6,0.6c-0.4,0-0.5-0.3-0.5-0.8
		c0-0.4-0.1-1.4-0.4-2.2c-0.4-1-1.1-1.4-4.5-1.9c-1.1-0.1-8.4-0.2-9.1-0.2c-0.3,0-0.4,0.2-0.4,0.6V28c0,0.4,0,0.6,0.4,0.6
		c0.8,0,9.1,0,10.6-0.1c1.5-0.1,2.4-0.2,3.1-0.9c0.4-0.4,0.7-0.8,0.9-0.8c0.2,0,0.4,0.1,0.4,0.5s-0.4,1.4-0.5,3.4
		c-0.1,1.2-0.3,3.5-0.3,4c0,0.5-0.1,1.2-0.6,1.2c-0.3,0-0.4-0.2-0.4-0.6c0-0.6,0-1.2-0.3-2c-0.2-0.9-0.8-1.6-3.2-1.9
		c-1.7-0.2-8.5-0.3-9.6-0.3c-0.4,0-0.4,0.2-0.4,0.4v5.1c0,2.1-0.1,9.2,0,10.4c0.1,4.1,1.3,4.9,7.6,4.9c1.7,0,4.7,0,6.3-0.6
		c1.7-0.7,2.5-1.8,2.9-4.2c0.1-0.7,0.3-0.9,0.6-0.9c0.4,0,0.4,0.5,0.4,0.9c0,0.4-0.5,4.6-0.9,5.9c-0.4,1.6-1.1,1.6-3.5,1.6
		c-4.8,0-8.4-0.1-11-0.2c-2.7-0.1-4.3-0.1-5.3-0.1c-0.1,0-1.4,0-2.7,0.1c-1.2,0.1-2.7,0.1-3.7,0.1c-0.6,0-1-0.1-1-0.5
		c0-0.2,0.1-0.5,0.5-0.5c0.6,0,1.4-0.2,1.9-0.3c1.2-0.2,1.4-1.4,1.7-3.2c0.4-2.5,0.4-7.3,0.4-13.2V25.9z"/>
	<path class="st0" d="M366.6,25.9c0-9.5,0-11.2-0.1-13.2c-0.1-2.1-0.5-3.1-2.6-3.4c-0.5-0.1-1.6-0.1-2.2-0.1c-0.2,0-0.5-0.3-0.5-0.5
		c0-0.4,0.3-0.5,1-0.5c2.9,0,7,0.1,7.3,0.1c0.4,0,13.7,0.1,15.1,0c1.2-0.1,2.4-0.3,2.9-0.4c0.3-0.1,0.6-0.3,0.9-0.3
		c0.2,0,0.3,0.3,0.3,0.6c0,0.4-0.4,1.2-0.5,2.9c-0.1,0.6-0.2,3.3-0.4,4c-0.1,0.3-0.3,0.6-0.6,0.6c-0.4,0-0.5-0.3-0.5-0.8
		c0-0.4-0.1-1.4-0.4-2.2c-0.4-1-1.1-1.4-4.5-1.9c-1.1-0.1-8.4-0.2-9.1-0.2c-0.3,0-0.4,0.2-0.4,0.6V28c0,0.4,0,0.6,0.4,0.6
		c0.8,0,9.1,0,10.6-0.1c1.5-0.1,2.4-0.2,3.1-0.9c0.4-0.4,0.7-0.8,0.9-0.8c0.2,0,0.4,0.1,0.4,0.5s-0.4,1.4-0.5,3.4
		c-0.1,1.2-0.3,3.5-0.3,4c0,0.5-0.1,1.2-0.6,1.2c-0.3,0-0.4-0.2-0.4-0.6c0-0.6,0-1.2-0.3-2c-0.2-0.9-0.8-1.6-3.2-1.9
		c-1.7-0.2-8.5-0.3-9.6-0.3c-0.4,0-0.4,0.2-0.4,0.4v5.1c0,2.1-0.1,9.2,0,10.4c0.1,4.1,1.3,4.9,7.6,4.9c1.7,0,4.7,0,6.3-0.6
		c1.7-0.7,2.5-1.8,2.9-4.2c0.1-0.7,0.3-0.9,0.6-0.9c0.4,0,0.4,0.5,0.4,0.9c0,0.4-0.5,4.6-0.9,5.9c-0.4,1.6-1.1,1.6-3.5,1.6
		c-4.8,0-8.4-0.1-11-0.2c-2.7-0.1-4.3-0.1-5.3-0.1c-0.1,0-1.4,0-2.7,0.1c-1.2,0.1-2.7,0.1-3.7,0.1c-0.6,0-1-0.1-1-0.5
		c0-0.2,0.1-0.5,0.5-0.5c0.6,0,1.4-0.2,1.9-0.3c1.2-0.2,1.4-1.4,1.7-3.2c0.4-2.5,0.4-7.3,0.4-13.2V25.9z"/>
	<path class="st0" d="M475.9,44.5h0.3c1.9-6.6,8.6-27.5,11.1-36.7c0.7-2.7,0.8-3.7,0.8-4.6c0-1.3-0.8-2.2-4.1-2.2
		c-0.4,0-0.6-0.2-0.6-0.5c0-0.4,0.4-0.5,1.2-0.5c3.7,0,6.7,0.2,7.3,0.2c0.5,0,3.6-0.2,5.8-0.2c0.6,0,1,0.1,1,0.4
		c0,0.4-0.2,0.6-0.6,0.6c-0.3,0-1.7,0.1-2.4,0.4c-2.2,0.8-3.3,3.8-4.7,7.8c-3.2,9.1-10.4,32-13.2,40.1c-1.9,5.3-2.2,6.2-3,6.2
		c-0.7,0-1.2-0.9-2.2-3.7l-14.1-40h-0.1c-2.6,6.9-12.5,33.3-15,40c-1.2,3-1.5,3.8-2.4,3.8c-0.7,0-1.1-0.8-2.5-5.7L425.5,7.1
		c-1.2-3.8-2.1-4.9-4-5.6c-0.9-0.4-2.7-0.4-3.2-0.4c-0.4,0-0.6-0.1-0.6-0.5c0-0.4,0.4-0.5,1.2-0.5c3.7,0,7.7,0.2,8.5,0.2
		c0.6,0,3.8-0.2,7.4-0.2c1,0,1.3,0.2,1.3,0.5c0,0.4-0.4,0.5-0.7,0.5c-0.6,0-1.9,0-2.8,0.4c-0.4,0.2-0.9,0.8-0.9,1.7s0.6,3.5,1.4,6.6
		c1.1,4.6,8.6,31,9.6,34.9h0.1l15.3-41c1.1-3,1.4-3.3,1.8-3.3c0.5,0,0.9,0.9,1.8,3.4L475.9,44.5z"/>
	<path class="st0" d="M547.5,36.7c0,5.9,0.1,10.7,0.4,13.2c0.2,1.8,0.4,3,2.3,3.2c0.9,0.1,2.3,0.3,2.8,0.3c0.4,0,0.6,0.3,0.6,0.5
		c0,0.3-0.4,0.5-1.1,0.5c-3.5,0-7.5-0.2-7.8-0.2c-0.3,0-4.4,0.2-6.3,0.2c-0.7,0-1-0.1-1-0.5c0-0.2,0.1-0.5,0.5-0.5
		c0.6,0,1.3-0.1,1.9-0.3c1.3-0.3,1.5-1.5,1.7-3.3c0.3-2.5,0.3-7.1,0.3-13v-6.1c0-0.3-0.1-0.4-0.4-0.4h-26.4c-0.2,0-0.4,0.1-0.4,0.4
		v6.1c0,5.9,0,10.6,0.3,13.1c0.2,1.8,0.4,3,2.3,3.2c0.9,0.1,2.3,0.3,2.9,0.3c0.4,0,0.5,0.3,0.5,0.5c0,0.3-0.3,0.5-1,0.5
		c-3.5,0-7.6-0.2-7.8-0.2c-0.4,0-4.4,0.2-6.3,0.2c-0.6,0-1-0.1-1-0.5c0-0.2,0.1-0.5,0.5-0.5c0.6,0,1.4-0.1,1.9-0.3
		c1.2-0.3,1.4-1.4,1.7-3.2c0.4-2.5,0.4-7.3,0.4-13.2V25.9c0-9.5,0-11.2-0.1-13.2c-0.1-2.1-0.5-3.1-2.6-3.4c-0.5-0.1-1.6-0.1-2.2-0.1
		c-0.2,0-0.5-0.3-0.5-0.5c0-0.4,0.3-0.5,1-0.5c2.9,0,6.9,0.1,7.3,0.1c0.3,0,4.3-0.1,6.3-0.1c0.7,0,1,0.1,1,0.5
		c0,0.2-0.3,0.5-0.5,0.5c-0.4,0-0.9,0-1.6,0.1c-1.7,0.4-2.1,1.2-2.2,3.4c-0.1,1.9-0.1,3.8-0.1,13.3v1.3c0,0.4,0.1,0.4,0.4,0.4h26.4
		c0.2,0,0.4,0,0.4-0.4V26c0-9.5-0.1-11.4-0.1-13.3c-0.1-2.1-0.4-3.1-2.5-3.4c-0.5-0.1-1.6-0.1-2.2-0.1c-0.3,0-0.5-0.3-0.5-0.5
		c0-0.4,0.3-0.5,1-0.5c2.8,0,6.9,0.1,7.2,0.1c0.4,0,4.4-0.1,6.3-0.1c0.7,0,1.1,0.1,1.1,0.5c0,0.2-0.3,0.5-0.6,0.5
		c-0.4,0-0.8,0-1.6,0.1c-1.7,0.4-2,1.2-2.2,3.4c-0.1,1.9-0.1,3.7-0.1,13.2V36.7z"/>
	<path class="st0" d="M574.1,36.7c0,5.9,0,10.7,0.3,13.2c0.2,1.8,0.4,3,2.3,3.2c0.9,0.1,2.3,0.3,2.9,0.3c0.4,0,0.5,0.3,0.5,0.5
		c0,0.3-0.3,0.5-1,0.5c-3.5,0-7.6-0.2-7.9-0.2c-0.4,0-4.3,0.2-6.3,0.2c-0.6,0-1-0.1-1-0.5c0-0.2,0.1-0.5,0.5-0.5
		c0.6,0,1.4-0.1,1.9-0.3c1.2-0.3,1.4-1.4,1.7-3.2c0.3-2.5,0.4-7.3,0.4-13.2V25.9c0-9.5,0-11.2-0.1-13.2c-0.1-2.1-0.6-3-2-3.3
		c-0.7-0.1-1.5-0.2-1.9-0.2c-0.3,0-0.5-0.3-0.5-0.5c0-0.4,0.3-0.5,1-0.5c2.1,0,6,0.1,6.4,0.1c0.3,0,4.4-0.1,6.3-0.1
		c0.7,0,1,0.1,1,0.5c0,0.2-0.3,0.5-0.5,0.5c-0.4,0-0.9,0-1.6,0.1c-1.7,0.4-2.1,1.2-2.2,3.4c-0.1,1.9-0.1,3.7-0.1,13.2V36.7z"/>
	<path class="st0" d="M610.2,36.7c0,5.9,0,10.7,0.3,13.2c0.2,1.8,0.5,3,2.4,3.2c0.9,0.1,2.3,0.3,2.9,0.3c0.4,0,0.5,0.3,0.5,0.5
		c0,0.3-0.3,0.5-1,0.5c-3.5,0-7.5-0.2-7.8-0.2c-0.3,0-4.7,0.2-6.6,0.2c-0.7,0-1-0.1-1-0.5c0-0.2,0.1-0.4,0.5-0.4
		c0.6,0,1.3-0.1,1.9-0.3c1.3-0.3,1.7-1.5,1.9-3.3c0.3-2.5,0.3-7.3,0.3-13.2V10.9l-9.1,0.1c-4,0.1-5.5,0.5-6.4,1.9
		c-0.7,1.1-0.8,1.5-1,1.9c-0.1,0.5-0.4,0.6-0.6,0.6c-0.1,0-0.4-0.1-0.4-0.5c0-0.6,1.3-6.1,1.4-6.6c0.1-0.4,0.4-1.2,0.6-1.2
		c0.4,0,1.1,0.5,2.8,0.7c1.8,0.2,4.2,0.3,5,0.3h23.9c2.1,0,3.5-0.1,4.5-0.3c0.9-0.1,1.5-0.3,1.8-0.3c0.3,0,0.3,0.4,0.3,0.7
		c0,1.9-0.2,6.3-0.2,7c0,0.5-0.3,0.8-0.6,0.8s-0.4-0.2-0.5-1.1l-0.1-0.6c-0.2-1.9-1.6-3.2-7.6-3.4l-7.9-0.1V36.7z"/>
	<path class="st0" d="M646.1,36.8c0,9,0.1,12.7,1.3,13.8c1,1,3.5,1.4,8.4,1.4c3.3,0,6.1-0.1,7.6-1.9c0.8-0.9,1.3-2.2,1.5-3.5
		c0.1-0.4,0.3-0.8,0.6-0.8c0.3,0,0.4,0.3,0.4,0.9c0,0.6-0.4,4.3-0.9,6.1c-0.4,1.4-0.6,1.7-4,1.7c-4.5,0-8.1-0.1-11-0.2
		c-2.9-0.1-5-0.1-6.9-0.1c-0.3,0-1.4,0-2.6,0.1c-1.3,0.1-2.7,0.1-3.7,0.1c-0.6,0-1-0.1-1-0.5c0-0.2,0.1-0.5,0.5-0.5
		c0.6,0,1.4-0.1,1.9-0.3c1.2-0.3,1.4-1.4,1.7-3.2c0.4-2.5,0.4-7.3,0.4-13.2V25.9c0-9.5,0-11.2-0.1-13.2c-0.1-2.1-0.5-3.1-2.6-3.4
		c-0.5-0.1-1.6-0.1-2.2-0.1c-0.2,0-0.5-0.3-0.5-0.5c0-0.4,0.3-0.5,1-0.5c2.9,0,6.8,0.1,7.2,0.1c0.3,0,5-0.1,7-0.1c0.6,0,1,0.1,1,0.5
		c0,0.2-0.3,0.4-0.5,0.4c-0.4,0-1.4,0.1-2.1,0.1c-1.9,0.4-2.2,1.3-2.4,3.5c-0.1,1.9-0.1,3.7-0.1,13.2V36.8z"/>
	<path class="st0" d="M695.2,7.3c14.3,0,25.1,8.7,25.1,23c0,13.7-10.2,25-25.4,25c-17.4,0-24.8-13-24.8-24.1
		C670,21.3,677.7,7.3,695.2,7.3z M696.6,52.7c5.7,0,17.1-3,17.1-20.7c0-14.7-8.9-22.4-18.9-22.4c-10.6,0-18.2,6.6-18.2,19.9
		C676.6,43.8,685.2,52.7,696.6,52.7z"/>
	<path class="st0" d="M774.4,45.4h0.3c1.6-5,7.3-22.8,9.5-30.6c0.6-2.3,0.7-3,0.7-3.8c0-1.1-0.5-1.8-3.4-1.8c-0.4,0-0.6-0.4-0.6-0.6
		c0-0.3,0.3-0.4,1.1-0.4c3.2,0,5.9,0.1,6.5,0.1c0.4,0,3.2-0.1,5.1-0.1c0.6,0,0.9,0.1,0.9,0.4c0,0.3-0.1,0.6-0.6,0.6
		c-0.2,0-1.4,0.1-2.2,0.3c-1.9,0.6-2.9,3.1-4.1,6.5c-2.8,7.8-9.1,27.2-11.6,34.1c-1.7,4.5-2,5.3-2.7,5.3c-0.6,0-1.2-0.8-2.1-3.2
		l-12.4-33.5c-2.2,5.3-10.7,27.7-13,33.4c-1.1,2.6-1.5,3.2-2.2,3.2c-0.6,0-1.2-0.6-2.4-4.8l-11.2-36.3c-1-3.2-1.7-4-3.3-4.6
		c-0.9-0.3-2.4-0.4-2.9-0.4c-0.3,0-0.6-0.2-0.6-0.6c0-0.3,0.4-0.4,1-0.4c3.3,0,6.8,0.1,7.5,0.1c0.6,0,3.5-0.1,6.6-0.1
		c0.9,0,1.2,0.1,1.2,0.4c0,0.4-0.4,0.6-0.6,0.6c-0.5,0-1.5,0-2.2,0.4c-0.4,0.1-0.9,0.5-0.9,1.3c0,0.8,0.5,3,1.2,5.7
		c1,3.9,7.5,26.4,8.3,28.9h0.1l13.2-34.2c0.9-2.4,1.4-2.8,1.7-2.8c0.4,0,0.9,0.8,1.7,2.9L774.4,45.4z"/>
	<path class="st0" d="M65.7,107.3c0-11.2,0-13.2-0.1-15.6c-0.1-2.4-0.7-3.6-3.1-4.1c-0.6-0.1-1.8-0.2-2.4-0.2
		c-0.3,0-0.6-0.1-0.6-0.4c0-0.4,0.4-0.6,1.2-0.6c3.2,0,7.6,0.2,8.1,0.2c1.6,0,5.8-0.2,9.1-0.2c9,0,12.2,3,13.4,4.1
		c1.6,1.5,3.6,4.8,3.6,8.6c0,10.2-7.5,17.1-17.7,17.1c-0.4,0-1.2,0-1.5-0.1c-0.4,0-0.8-0.1-0.8-0.5c0-0.6,0.4-0.6,1.9-0.6
		c7,0,12.5-5.1,12.5-11.7c0-2.4-0.2-7.2-4-11.1c-3.8-3.9-8.2-3.6-9.9-3.6c-1.2,0-2.4,0.1-3.1,0.4c-0.4,0.1-0.6,0.6-0.6,1.4V120
		c0,6.9,0,12.6,0.4,15.6c0.2,2.1,0.6,3.7,2.8,4c1,0.1,2.6,0.3,3.2,0.3c0.4,0,0.6,0.2,0.6,0.4c0,0.4-0.4,0.6-1.2,0.6
		c-4,0-8.5-0.2-8.9-0.2c-0.2,0-4.8,0.2-6.9,0.2c-0.8,0-1.2-0.1-1.2-0.6c0-0.2,0.1-0.4,0.6-0.4c0.6,0,1.5-0.1,2.2-0.3
		c1.4-0.3,1.8-1.9,2.1-4c0.4-3,0.4-8.7,0.4-15.6V107.3z"/>
	<path class="st0" d="M109.1,112.2c0-9.5,0-11.2-0.1-13.2c-0.1-2.1-0.5-3.1-2.6-3.4c-0.5-0.1-1.6-0.1-2.2-0.1
		c-0.2,0-0.5-0.3-0.5-0.5c0-0.4,0.3-0.5,1-0.5c2.9,0,7.1,0.1,7.5,0.1c0.6,0,6-0.1,7.9-0.1c4,0,8.5,0.4,11.8,2.7
		c1.6,1.2,4.4,4.1,4.4,8.4c0,4.5-1.9,8.9-7.8,14c5.2,6.5,9.6,12,13.2,15.8c3.4,3.5,5.5,4,7.1,4.2c1.2,0.2,1.9,0.2,2.2,0.2
		s0.6,0.3,0.6,0.5c0,0.4-0.4,0.5-1.5,0.5h-4c-3.6,0-5.2-0.4-6.8-1.2c-2.7-1.4-5-4.4-8.6-9c-2.7-3.3-5.5-7.3-6.8-8.9
		c-0.3-0.3-0.4-0.4-0.9-0.4l-8.1-0.1c-0.3,0-0.4,0.1-0.4,0.5v1.4c0,5.9,0,10.7,0.3,13.2c0.2,1.8,0.6,3,2.5,3.2
		c0.9,0.1,2.2,0.3,2.8,0.3c0.4,0,0.5,0.3,0.5,0.5c0,0.3-0.3,0.5-1,0.5c-3.5,0-7.5-0.2-7.8-0.2c-0.1,0-4.3,0.2-6.3,0.2
		c-0.6,0-1-0.1-1-0.5c0-0.2,0.1-0.5,0.5-0.5c0.6,0,1.4-0.1,1.9-0.3c1.2-0.3,1.4-1.4,1.7-3.2c0.4-2.5,0.4-7.3,0.4-13.2V112.2z
		 M114.6,117.4c0,0.4,0.1,0.6,0.4,0.8c0.9,0.5,4.2,0.9,7,0.9c1.5,0,3.2-0.1,4.8-1.1c2.2-1.4,3.8-4.7,3.8-9.4c0-7.6-4.2-12-10.9-12
		c-1.9,0-3.9,0.2-4.5,0.4c-0.3,0.1-0.5,0.4-0.5,0.7V117.4z"/>
	<path class="st0" d="M167.5,95.8c0.8-2,1.1-2.4,1.5-2.4c0.6,0,0.9,0.9,1.5,2.2c1.2,2.6,11.3,27.9,15.2,37.2c2.3,5.5,4,6.3,5.4,6.7
		c0.9,0.3,1.9,0.4,2.5,0.4c0.4,0,0.8,0.1,0.8,0.5s-0.7,0.5-1.4,0.5c-0.9,0-5.6,0-10-0.1c-1.2-0.1-2.2-0.1-2.2-0.4
		c0-0.3,0.1-0.3,0.4-0.4c0.4-0.1,1-0.6,0.6-1.7l-5.7-14c-0.1-0.3-0.2-0.4-0.6-0.4h-14.6c-0.3,0-0.5,0.1-0.6,0.5l-3.6,9.8
		c-0.6,1.5-0.9,3-0.9,4.1c0,1.2,1.1,1.7,2.2,1.7h0.6c0.5,0,0.6,0.2,0.6,0.5c0,0.4-0.4,0.5-0.9,0.5c-1.5,0-5-0.2-5.7-0.2
		c-0.6,0-3.8,0.2-6.4,0.2c-0.8,0-1.2-0.1-1.2-0.5c0-0.3,0.3-0.5,0.6-0.5c0.4,0,1.4-0.1,1.9-0.1c2.9-0.4,4.1-2.5,5.3-5.6L167.5,95.8z
		 M174.5,121.3c0.3,0,0.3-0.1,0.2-0.4l-6.3-16.8c-0.4-0.9-0.7-0.9-1.1,0l-5.9,16.8c-0.1,0.3,0,0.4,0.2,0.4H174.5z"/>
	<path class="st0" d="M202.8,112.2c0-9.5,0-11.2-0.1-13.2c-0.1-2.1-0.5-3.1-2.6-3.4c-0.5-0.1-1.6-0.1-2.2-0.1
		c-0.2,0-0.5-0.3-0.5-0.5c0-0.4,0.3-0.5,1-0.5c2.9,0,7,0.1,7.3,0.1c0.4,0,13.7,0.1,15.1,0c1.2-0.1,2.4-0.3,2.9-0.4
		c0.3-0.1,0.6-0.3,0.9-0.3c0.2,0,0.3,0.3,0.3,0.6c0,0.4-0.4,1.2-0.5,2.9c-0.1,0.6-0.2,3.3-0.4,4c-0.1,0.3-0.3,0.6-0.6,0.6
		c-0.4,0-0.5-0.3-0.5-0.8c0-0.4-0.1-1.4-0.4-2.2c-0.4-1-1.1-1.4-4.5-1.9c-1.1-0.1-8.4-0.2-9.1-0.2c-0.3,0-0.4,0.2-0.4,0.6v16.6
		c0,0.4,0,0.6,0.4,0.6c0.8,0,9.1,0,10.6-0.1c1.5-0.1,2.4-0.2,3.1-0.9c0.4-0.4,0.7-0.8,0.9-0.8c0.2,0,0.4,0.1,0.4,0.5
		c0,0.4-0.4,1.4-0.5,3.4c-0.1,1.2-0.3,3.5-0.3,4c0,0.5-0.1,1.2-0.6,1.2c-0.3,0-0.4-0.2-0.4-0.6c0-0.6,0-1.2-0.3-2
		c-0.2-0.9-0.8-1.6-3.2-1.9c-1.7-0.2-8.5-0.3-9.6-0.3c-0.4,0-0.4,0.2-0.4,0.4v5.1c0,2.1-0.1,9.2,0,10.4c0.1,4.1,1.3,4.9,7.6,4.9
		c1.7,0,4.7,0,6.3-0.6c1.7-0.7,2.5-1.8,2.9-4.2c0.1-0.7,0.3-0.9,0.6-0.9c0.4,0,0.4,0.5,0.4,0.9c0,0.4-0.5,4.6-0.9,5.9
		c-0.4,1.6-1.1,1.6-3.5,1.6c-4.8,0-8.4-0.1-11-0.2c-2.7-0.1-4.3-0.1-5.3-0.1c-0.1,0-1.4,0-2.7,0.1c-1.2,0.1-2.7,0.1-3.7,0.1
		c-0.6,0-1-0.1-1-0.5c0-0.2,0.1-0.5,0.5-0.5c0.6,0,1.4-0.2,1.9-0.3c1.2-0.2,1.4-1.4,1.7-3.2c0.4-2.5,0.4-7.3,0.4-13.2V112.2z"/>
	<path class="st0" d="M256.2,123.1c0,5.9,0,10.7,0.3,13.2c0.2,1.8,0.5,3,2.4,3.2c0.9,0.1,2.3,0.3,2.9,0.3c0.4,0,0.5,0.3,0.5,0.5
		c0,0.3-0.3,0.5-1,0.5c-3.5,0-7.5-0.2-7.8-0.2c-0.3,0-4.7,0.2-6.6,0.2c-0.7,0-1-0.1-1-0.5c0-0.2,0.1-0.4,0.5-0.4
		c0.6,0,1.3-0.1,1.9-0.3c1.3-0.3,1.7-1.5,1.9-3.3c0.3-2.5,0.3-7.3,0.3-13.2V97.3l-9.1,0.1c-4,0.1-5.5,0.5-6.4,1.9
		c-0.7,1.1-0.8,1.5-1,1.9c-0.1,0.5-0.4,0.6-0.6,0.6c-0.1,0-0.4-0.1-0.4-0.5c0-0.6,1.3-6.1,1.4-6.6c0.1-0.4,0.4-1.2,0.6-1.2
		c0.4,0,1.1,0.5,2.8,0.7c1.8,0.2,4.2,0.3,5,0.3h23.9c2.1,0,3.5-0.1,4.5-0.3c0.9-0.1,1.5-0.3,1.8-0.3s0.3,0.4,0.3,0.7
		c0,1.9-0.2,6.3-0.2,7c0,0.5-0.3,0.8-0.6,0.8s-0.4-0.2-0.5-1.1l-0.1-0.6c-0.2-1.9-1.6-3.2-7.6-3.4l-7.9-0.1V123.1z"/>
	<path class="st0" d="M302.2,125.9c0-8.4,5.4-14,11-17.4c-2.7-3.7-3.5-6.7-3.5-9.9c0-5.7,5.8-13.2,15.5-13.2c3.7,0,6.8,0.7,8.7,1.8
		c0.9,0.5,0.9,0.9,0.9,1.8c0,2.2-0.3,7.2-0.5,8.3c-0.2,1.1-0.4,1.2-0.7,1.2c-0.4,0-0.4-0.3-0.4-1.4c0-1.9-0.4-4.2-2.2-6.1
		c-1.6-1.7-4-3.2-7.2-3.2c-4.3,0-9.1,2.7-9.1,9.4c0,5.6,3.9,10.3,11.4,18.4c2.4,2.7,11.3,10.9,13.6,12.9c2-2.7,3.7-7.6,3.7-12
		c0-1.1-0.3-2.4-1.4-3.5c-0.9-0.9-2.4-1.2-3.5-1.2c-0.4,0-0.9-0.1-0.9-0.5s0.6-0.5,1.2-0.5c1.7,0,4.6,0.1,8.6,0.5
		c1.1,0.1,1.3,0.7,1.3,1.4c0,5.8-4,13.1-7.1,17c4.8,4,7.9,6,9.9,7.1c2.3,1.4,6,2.8,8.6,2.8c0.6,0,1,0.1,1,0.5c0,0.3-0.6,0.5-1.2,0.5
		h-7.1c-5.3,0-7.1-0.5-15-6.8c-1.7,1.7-7.3,7.8-18,7.8C307.1,141.8,302.2,132.2,302.2,125.9z M335.8,132.7c-4-3.3-11.2-10.2-13-12.2
		c-1.9-2-6.5-7.1-8.5-10.1c-3.7,2.4-6.5,6.3-6.5,12.1c0,9,6.3,15.5,14.4,15.5C328.9,138,333.4,135.2,335.8,132.7z"/>
	<path class="st0" d="M390.6,107.3c0-11.2,0-13.2-0.1-15.6c-0.1-2.4-0.7-3.6-3.1-4.1c-0.6-0.1-1.8-0.2-2.4-0.2
		c-0.3,0-0.6-0.1-0.6-0.4c0-0.4,0.4-0.6,1.2-0.6c1.7,0,3.6,0,5.2,0.1l3,0.1c1.4,0.1,16.1,0,17.7-0.1c1.4-0.1,2.5-0.1,3.2-0.3
		c0.4-0.1,0.7-0.4,1-0.4c0.3,0,0.4,0.3,0.4,0.6c0,0.5-0.4,1.4-0.6,3.4c-0.1,0.7-0.2,3.9-0.4,4.8c-0.1,0.4-0.2,0.8-0.6,0.8
		c-0.4,0-0.5-0.4-0.5-0.9c0-0.6-0.2-1.8-0.6-2.7c-0.4-0.9-2.1-2.2-4.9-2.3l-11.1-0.2c-0.4,0-0.6,0.2-0.6,0.8v19.9
		c0,0.4,0.1,0.6,0.5,0.6l9.2-0.1c1.2,0,2.2,0,3.2-0.1c1.7-0.1,2.7-0.4,3.3-1.3c0.3-0.4,0.5-0.7,0.8-0.7s0.4,0.2,0.4,0.6
		c0,0.4-0.4,1.7-0.6,4c-0.1,1.4-0.3,4.3-0.3,4.8c0,0.6,0,1.4-0.5,1.4c-0.4,0-0.5-0.3-0.5-0.6c-0.1-0.7-0.1-1.7-0.4-2.6
		c-0.4-1-1.5-2.3-3.7-2.6c-1.8-0.2-9.6-0.2-10.9-0.2c-0.4,0-0.5,0.1-0.5,0.6v6.1c0,6.9,0,12.6,0.4,15.6c0.2,2.1,0.6,3.7,2.8,4
		c1,0.1,2.6,0.3,3.2,0.3c0.4,0,0.6,0.2,0.6,0.4c0,0.4-0.4,0.6-1.2,0.6c-4,0-8.5-0.2-8.9-0.2c-0.4,0-4.9,0.2-7.1,0.2
		c-0.8,0-1.2-0.1-1.2-0.6c0-0.2,0.1-0.4,0.6-0.4c0.6,0,1.5-0.1,2.2-0.3c1.4-0.3,1.8-1.9,2.1-4c0.4-3,0.4-8.7,0.4-15.6V107.3z"/>
	<path class="st0" d="M437.3,123.1c0,5.9,0,10.7,0.3,13.2c0.2,1.8,0.4,3,2.3,3.2c0.9,0.1,2.3,0.3,2.9,0.3c0.4,0,0.5,0.3,0.5,0.5
		c0,0.3-0.3,0.5-1,0.5c-3.5,0-7.6-0.2-7.9-0.2c-0.4,0-4.3,0.2-6.3,0.2c-0.6,0-1-0.1-1-0.5c0-0.2,0.1-0.5,0.5-0.5
		c0.6,0,1.4-0.1,1.9-0.3c1.2-0.3,1.4-1.4,1.7-3.2c0.3-2.5,0.4-7.3,0.4-13.2v-10.8c0-9.5,0-11.2-0.1-13.2c-0.1-2.1-0.6-3-2-3.3
		c-0.7-0.1-1.5-0.2-1.9-0.2c-0.3,0-0.5-0.3-0.5-0.5c0-0.4,0.3-0.5,1-0.5c2.1,0,6,0.1,6.4,0.1c0.3,0,4.4-0.1,6.3-0.1
		c0.7,0,1,0.1,1,0.5c0,0.2-0.3,0.5-0.5,0.5c-0.4,0-0.9,0-1.6,0.1c-1.7,0.4-2.1,1.2-2.2,3.4c-0.1,1.9-0.1,3.7-0.1,13.2V123.1z"/>
	<path class="st0" d="M463.9,123.2c0,9,0.1,12.7,1.3,13.8c1,1,3.5,1.4,8.4,1.4c3.3,0,6.1-0.1,7.6-1.9c0.8-0.9,1.3-2.2,1.5-3.5
		c0.1-0.4,0.3-0.8,0.6-0.8c0.3,0,0.4,0.3,0.4,0.9s-0.4,4.3-0.9,6.1c-0.4,1.4-0.6,1.7-4,1.7c-4.5,0-8.1-0.1-11-0.2
		c-2.9-0.1-5-0.1-6.9-0.1c-0.3,0-1.4,0-2.6,0.1c-1.3,0.1-2.7,0.1-3.7,0.1c-0.6,0-1-0.1-1-0.5c0-0.2,0.1-0.5,0.5-0.5
		c0.6,0,1.4-0.1,1.9-0.3c1.2-0.3,1.4-1.4,1.7-3.2c0.4-2.5,0.4-7.3,0.4-13.2v-10.8c0-9.5,0-11.2-0.1-13.2c-0.1-2.1-0.5-3.1-2.6-3.4
		c-0.5-0.1-1.6-0.1-2.2-0.1c-0.2,0-0.5-0.3-0.5-0.5c0-0.4,0.3-0.5,1-0.5c2.9,0,6.8,0.1,7.2,0.1c0.3,0,5-0.1,7-0.1c0.6,0,1,0.1,1,0.5
		c0,0.2-0.3,0.4-0.5,0.4c-0.4,0-1.4,0.1-2.1,0.1c-1.9,0.4-2.2,1.3-2.4,3.5c-0.1,1.9-0.1,3.7-0.1,13.2V123.2z"/>
	<path class="st0" d="M496.7,112.2c0-9.5,0-11.2-0.1-13.2c-0.1-2.1-0.5-3.1-2.6-3.4c-0.5-0.1-1.6-0.1-2.2-0.1
		c-0.2,0-0.5-0.3-0.5-0.5c0-0.4,0.3-0.5,1-0.5c2.9,0,7,0.1,7.3,0.1c0.4,0,13.7,0.1,15.1,0c1.2-0.1,2.4-0.3,2.9-0.4
		c0.3-0.1,0.6-0.3,0.9-0.3c0.2,0,0.3,0.3,0.3,0.6c0,0.4-0.4,1.2-0.5,2.9c-0.1,0.6-0.2,3.3-0.4,4c-0.1,0.3-0.3,0.6-0.6,0.6
		c-0.4,0-0.5-0.3-0.5-0.8c0-0.4-0.1-1.4-0.4-2.2c-0.4-1-1.1-1.4-4.5-1.9c-1.1-0.1-8.4-0.2-9.1-0.2c-0.3,0-0.4,0.2-0.4,0.6v16.6
		c0,0.4,0,0.6,0.4,0.6c0.8,0,9.1,0,10.6-0.1c1.5-0.1,2.4-0.2,3.1-0.9c0.4-0.4,0.7-0.8,0.9-0.8c0.2,0,0.4,0.1,0.4,0.5
		c0,0.4-0.4,1.4-0.5,3.4c-0.1,1.2-0.3,3.5-0.3,4c0,0.5-0.1,1.2-0.6,1.2c-0.3,0-0.4-0.2-0.4-0.6c0-0.6,0-1.2-0.3-2
		c-0.2-0.9-0.8-1.6-3.2-1.9c-1.7-0.2-8.5-0.3-9.6-0.3c-0.4,0-0.4,0.2-0.4,0.4v5.1c0,2.1-0.1,9.2,0,10.4c0.1,4.1,1.3,4.9,7.6,4.9
		c1.7,0,4.7,0,6.3-0.6c1.7-0.7,2.5-1.8,2.9-4.2c0.1-0.7,0.3-0.9,0.6-0.9c0.4,0,0.4,0.5,0.4,0.9c0,0.4-0.5,4.6-0.9,5.9
		c-0.4,1.6-1.1,1.6-3.5,1.6c-4.8,0-8.4-0.1-11-0.2c-2.7-0.1-4.3-0.1-5.3-0.1c-0.1,0-1.4,0-2.7,0.1c-1.2,0.1-2.7,0.1-3.7,0.1
		c-0.6,0-1-0.1-1-0.5c0-0.2,0.1-0.5,0.5-0.5c0.6,0,1.4-0.2,1.9-0.3c1.2-0.2,1.4-1.4,1.7-3.2c0.4-2.5,0.4-7.3,0.4-13.2V112.2z"/>
	<path class="st0" d="M530.7,135.7c0-2,2.6-3.9,4.5-3.9c0.4,0,0.6,0.2,1.3,1.4c0.9,1.4,1.2,2.4,1.2,3.1c0,0.6-0.4,1.9-0.7,2.8
		c-0.7,1.7-2.6,5.5-4.6,7.7c-0.3,0.4-0.6,0.6-0.9,0.6c-0.2,0-0.5-0.2-0.5-0.5s0.4-0.7,0.5-1c1.2-2.1,1.7-3.7,1.7-5.1
		C533.2,137.5,530.7,136.5,530.7,135.7z"/>
	<path class="st0" d="M577.7,112.2c0-9.5,0-11.2-0.1-13.2c-0.1-2.1-0.5-3.1-2.6-3.4c-0.5-0.1-1.6-0.1-2.2-0.1
		c-0.2,0-0.5-0.3-0.5-0.5c0-0.4,0.3-0.5,1-0.5c2.9,0,6.8,0.1,7.3,0.1c1.4,0,6.1-0.1,9-0.1c8.1,0,11,2.5,12.1,3.5
		c1.4,1.3,3.2,4,3.2,7.3c0,8.8-6.6,14.6-16.3,14.6c-0.4,0-1.4,0-1.8-0.1c-0.3,0-0.6-0.3-0.6-0.6c0-0.5,0.4-0.6,1.7-0.6
		c6.8,0,11.7-4.3,11.7-9.9c0-2-0.2-6-3.6-9.3c-3.3-3.3-7.1-3-8.6-3c-1.1,0-2.9,0.3-3.5,0.4c-0.4,0.1-0.5,0.5-0.5,1.2v24.9
		c0,5.9,0,10.7,0.3,13.2c0.2,1.8,0.6,3,2.5,3.2c0.9,0.1,2.2,0.3,2.8,0.3c0.4,0,0.5,0.3,0.5,0.5c0,0.3-0.3,0.5-1,0.5
		c-3.5,0-7.6-0.2-7.9-0.2c-0.2,0-4.3,0.2-6.3,0.2c-0.6,0-1-0.1-1-0.5c0-0.2,0.1-0.5,0.5-0.5c0.6,0,1.4-0.1,1.9-0.3
		c1.2-0.3,1.4-1.4,1.7-3.2c0.4-2.5,0.4-7.3,0.4-13.2V112.2z"/>
	<path class="st0" d="M624.7,123.2c0,9,0.1,12.7,1.3,13.8c1,1,3.5,1.4,8.4,1.4c3.3,0,6.1-0.1,7.6-1.9c0.8-0.9,1.3-2.2,1.5-3.5
		c0.1-0.4,0.3-0.8,0.6-0.8c0.3,0,0.4,0.3,0.4,0.9s-0.4,4.3-0.9,6.1c-0.4,1.4-0.6,1.7-4,1.7c-4.5,0-8.1-0.1-11-0.2
		c-2.9-0.1-5-0.1-6.9-0.1c-0.3,0-1.4,0-2.6,0.1c-1.3,0.1-2.7,0.1-3.7,0.1c-0.6,0-1-0.1-1-0.5c0-0.2,0.1-0.5,0.5-0.5
		c0.6,0,1.4-0.1,1.9-0.3c1.2-0.3,1.4-1.4,1.7-3.2c0.4-2.5,0.4-7.3,0.4-13.2v-10.8c0-9.5,0-11.2-0.1-13.2c-0.1-2.1-0.5-3.1-2.6-3.4
		c-0.5-0.1-1.6-0.1-2.2-0.1c-0.2,0-0.5-0.3-0.5-0.5c0-0.4,0.3-0.5,1-0.5c2.9,0,6.8,0.1,7.2,0.1c0.3,0,5-0.1,7-0.1c0.6,0,1,0.1,1,0.5
		c0,0.2-0.3,0.4-0.5,0.4c-0.4,0-1.4,0.1-2.1,0.1c-1.9,0.4-2.2,1.3-2.4,3.5c-0.1,1.9-0.1,3.7-0.1,13.2V123.2z"/>
	<path class="st0" d="M663.2,123.2c0,9,0.1,12.7,1.3,13.8c1,1,3.5,1.4,8.4,1.4c3.3,0,6.1-0.1,7.6-1.9c0.8-0.9,1.3-2.2,1.5-3.5
		c0.1-0.4,0.3-0.8,0.6-0.8c0.3,0,0.4,0.3,0.4,0.9s-0.4,4.3-0.9,6.1c-0.4,1.4-0.6,1.7-4,1.7c-4.5,0-8.1-0.1-11-0.2
		c-2.9-0.1-5-0.1-6.9-0.1c-0.3,0-1.4,0-2.6,0.1c-1.3,0.1-2.7,0.1-3.7,0.1c-0.6,0-1-0.1-1-0.5c0-0.2,0.1-0.5,0.5-0.5
		c0.6,0,1.4-0.1,1.9-0.3c1.2-0.3,1.4-1.4,1.7-3.2c0.4-2.5,0.4-7.3,0.4-13.2v-10.8c0-9.5,0-11.2-0.1-13.2c-0.1-2.1-0.5-3.1-2.6-3.4
		c-0.5-0.1-1.6-0.1-2.2-0.1c-0.2,0-0.5-0.3-0.5-0.5c0-0.4,0.3-0.5,1-0.5c2.9,0,6.8,0.1,7.2,0.1c0.3,0,5-0.1,7-0.1c0.6,0,1,0.1,1,0.5
		c0,0.2-0.3,0.4-0.5,0.4c-0.4,0-1.4,0.1-2.1,0.1c-1.9,0.4-2.2,1.3-2.4,3.5c-0.1,1.9-0.1,3.7-0.1,13.2V123.2z"/>
	<path class="st0" d="M694.9,135.1c-6.2-5.3-7.7-12.3-7.7-18.1c0-4.1,1.5-11.2,7.1-16.7c3.8-3.7,9.6-6.6,19.3-6.6
		c2.5,0,6.1,0.2,9.2,0.7c2.4,0.4,4.4,0.9,6.5,0.9c0.6,0,0.8,0.3,0.8,0.6c0,0.5-0.1,1.2-0.3,3.5c-0.1,2-0.1,5.4-0.1,6.3
		c-0.1,0.9-0.4,1.3-0.7,1.3c-0.4,0-0.5-0.4-0.5-1.3c0-2.4-1-4.8-2.7-6.1c-2.2-1.9-6.8-3.4-12.5-3.4c-8.1,0-12,2.2-14.3,4.2
		c-4.7,4.3-5.7,9.8-5.7,16c0,11.7,9.3,22.2,22.8,22.2c4.8,0,7.9-0.4,10.4-2.9c1.4-1.4,2.2-4,2.4-5.1c0.1-0.6,0.2-0.9,0.6-0.9
		c0.3,0,0.6,0.4,0.6,0.9s-0.9,5.8-1.5,7.8c-0.4,1.2-0.5,1.4-1.6,1.8c-2.6,1-7.3,1.4-11.4,1.4C706.2,141.6,699.8,139.4,694.9,135.1z"
		/>
</g>
<rect x="47.2" y="169.3" class="st0" width="690.8" height="3"/>
<g>
	<path class="st0" d="M43.3,209.4c0-6.7,0-7.9-0.1-9.3c-0.1-1.5-0.4-2.2-1.8-2.5c-0.3-0.1-1.1-0.1-1.5-0.1c-0.2,0-0.3-0.1-0.3-0.3
		c0-0.3,0.2-0.3,0.7-0.3c1.9,0,4.5,0.1,4.9,0.1c0.9,0,3.4-0.1,5.4-0.1c5.4,0,7.3,1.8,8,2.5c0.9,0.9,2.1,2.8,2.1,5.1
		c0,6.1-4.5,10.2-10.6,10.2c-0.2,0-0.7,0-0.9,0c-0.2,0-0.5-0.1-0.5-0.3c0-0.3,0.3-0.4,1.2-0.4c4.2,0,7.4-3.1,7.4-7
		c0-1.4-0.1-4.3-2.4-6.6s-4.9-2.1-5.9-2.1c-0.7,0-1.5,0.1-1.8,0.3c-0.3,0.1-0.3,0.4-0.3,0.8V217c0,4.1,0,7.5,0.2,9.3
		c0.1,1.2,0.4,2.2,1.7,2.4c0.6,0.1,1.5,0.2,1.9,0.2c0.3,0,0.3,0.1,0.3,0.3c0,0.2-0.2,0.3-0.7,0.3c-2.4,0-5.1-0.1-5.3-0.1
		c-0.1,0-2.8,0.1-4.1,0.1c-0.5,0-0.7-0.1-0.7-0.3c0-0.1,0.1-0.3,0.3-0.3c0.4,0,0.9-0.1,1.3-0.2c0.9-0.2,1.1-1.1,1.2-2.4
		c0.2-1.8,0.2-5.2,0.2-9.3V209.4z"/>
	<path class="st0" d="M73.6,212.4c0-5.7,0-6.7-0.1-7.9c-0.1-1.2-0.3-1.8-1.5-2c-0.3,0-0.9-0.1-1.3-0.1c-0.1,0-0.3-0.2-0.3-0.3
		c0-0.2,0.2-0.3,0.6-0.3c1.7,0,4.3,0.1,4.5,0.1c0.4,0,3.6-0.1,4.7-0.1c2.4,0,5.1,0.2,7.1,1.6c0.9,0.7,2.6,2.5,2.6,5
		c0,2.7-1.1,5.3-4.6,8.3c3.1,3.9,5.7,7.2,7.9,9.5c2,2.1,3.3,2.4,4.2,2.5c0.7,0.1,1.1,0.1,1.3,0.1s0.3,0.2,0.3,0.3
		c0,0.2-0.2,0.3-0.9,0.3h-2.4c-2.1,0-3.1-0.2-4-0.7c-1.6-0.9-3-2.6-5.2-5.4c-1.6-2-3.3-4.3-4.1-5.3c-0.2-0.2-0.3-0.2-0.5-0.2
		l-4.8-0.1c-0.2,0-0.3,0.1-0.3,0.3v0.9c0,3.5,0,6.4,0.2,7.9c0.1,1.1,0.3,1.8,1.5,1.9c0.5,0.1,1.3,0.2,1.7,0.2c0.3,0,0.3,0.2,0.3,0.3
		c0,0.2-0.2,0.3-0.6,0.3c-2.1,0-4.5-0.1-4.6-0.1c0,0-2.6,0.1-3.7,0.1c-0.4,0-0.6-0.1-0.6-0.3c0-0.1,0.1-0.3,0.3-0.3
		c0.3,0,0.8-0.1,1.2-0.2c0.7-0.2,0.8-0.9,1-1.9c0.2-1.5,0.2-4.4,0.2-7.9V212.4z M76.8,215.5c0,0.2,0.1,0.3,0.3,0.5
		c0.6,0.3,2.5,0.6,4.2,0.6c0.9,0,1.9,0,2.8-0.6c1.3-0.9,2.3-2.8,2.3-5.6c0-4.6-2.5-7.2-6.5-7.2c-1.1,0-2.3,0.1-2.7,0.2
		c-0.2,0.1-0.3,0.2-0.3,0.4V215.5z"/>
	<path class="st0" d="M118.1,201.3c8.5,0,15,5.2,15,13.7c0,8.2-6.1,14.9-15.2,14.9c-10.4,0-14.8-7.8-14.8-14.4
		C103.1,209.7,107.6,201.3,118.1,201.3z M118.9,228.4c3.4,0,10.2-1.8,10.2-12.4c0-8.8-5.3-13.4-11.3-13.4c-6.3,0-10.9,4-10.9,11.9
		C107,223.1,112.1,228.4,118.9,228.4z"/>
	<path class="st0" d="M145.3,212.4c0-5.7,0-6.7-0.1-7.9c-0.1-1.2-0.3-1.8-1.5-2c-0.3,0-0.9-0.1-1.3-0.1c-0.1,0-0.3-0.2-0.3-0.3
		c0-0.2,0.2-0.3,0.6-0.3c1.7,0,4.1,0.1,4.4,0.1c0.8,0,3.7-0.1,5.4-0.1c4.9,0,6.6,1.5,7.2,2.1c0.9,0.8,1.9,2.4,1.9,4.4
		c0,5.2-4,8.7-9.8,8.7c-0.2,0-0.9,0-1.1,0c-0.2,0-0.4-0.2-0.4-0.3c0-0.3,0.2-0.4,1-0.4c4.1,0,7-2.6,7-5.9c0-1.2-0.1-3.6-2.1-5.5
		c-2-2-4.3-1.8-5.1-1.8c-0.6,0-1.7,0.2-2.1,0.3c-0.2,0-0.3,0.3-0.3,0.7v14.9c0,3.5,0,6.4,0.2,7.9c0.1,1.1,0.3,1.8,1.5,1.9
		c0.5,0.1,1.3,0.2,1.7,0.2c0.2,0,0.3,0.2,0.3,0.3c0,0.2-0.2,0.3-0.6,0.3c-2.1,0-4.6-0.1-4.7-0.1c-0.1,0-2.6,0.1-3.7,0.1
		c-0.4,0-0.6-0.1-0.6-0.3c0-0.1,0.1-0.3,0.3-0.3c0.3,0,0.8-0.1,1.2-0.2c0.7-0.2,0.8-0.9,1-1.9c0.2-1.5,0.2-4.4,0.2-7.9V212.4z"/>
	<path class="st0" d="M174.2,212.4c0-5.7,0-6.7-0.1-7.9c-0.1-1.2-0.3-1.8-1.5-2c-0.3,0-0.9-0.1-1.3-0.1c-0.1,0-0.3-0.2-0.3-0.3
		c0-0.2,0.2-0.3,0.6-0.3c1.7,0,4.2,0.1,4.4,0.1c0.3,0,8.2,0,9,0c0.7,0,1.4-0.2,1.7-0.2c0.2,0,0.3-0.2,0.5-0.2c0.1,0,0.2,0.2,0.2,0.3
		c0,0.3-0.2,0.7-0.3,1.7c0,0.3-0.1,2-0.2,2.4c0,0.2-0.2,0.4-0.3,0.4c-0.2,0-0.3-0.2-0.3-0.5c0-0.3,0-0.9-0.2-1.3
		c-0.3-0.6-0.6-0.9-2.7-1.1c-0.6-0.1-5-0.1-5.5-0.1c-0.2,0-0.2,0.1-0.2,0.4v9.9c0,0.3,0,0.4,0.2,0.4c0.5,0,5.5,0,6.3-0.1
		c0.9-0.1,1.5-0.1,1.8-0.5c0.3-0.3,0.4-0.5,0.6-0.5s0.2,0.1,0.2,0.3c0,0.2-0.2,0.8-0.3,2c-0.1,0.7-0.2,2.1-0.2,2.4
		c0,0.3-0.1,0.7-0.3,0.7c-0.2,0-0.3-0.1-0.3-0.3c0-0.3,0-0.7-0.2-1.2c-0.1-0.5-0.5-0.9-1.9-1.1c-1-0.1-5.1-0.2-5.7-0.2
		c-0.2,0-0.3,0.1-0.3,0.3v3.1c0,1.2,0,5.5,0,6.2c0.1,2.5,0.8,2.9,4.5,2.9c1,0,2.8,0,3.8-0.4c1-0.4,1.5-1.1,1.7-2.5
		c0.1-0.4,0.2-0.6,0.4-0.6s0.3,0.3,0.3,0.6c0,0.3-0.3,2.8-0.5,3.5c-0.3,0.9-0.6,0.9-2.1,0.9c-2.8,0-5-0.1-6.6-0.1
		c-1.6-0.1-2.6-0.1-3.1-0.1c-0.1,0-0.8,0-1.6,0c-0.7,0-1.6,0.1-2.2,0.1c-0.4,0-0.6-0.1-0.6-0.3c0-0.1,0.1-0.3,0.3-0.3
		c0.3,0,0.8-0.1,1.2-0.2c0.7-0.1,0.8-0.9,1-1.9c0.2-1.5,0.2-4.4,0.2-7.9V212.4z"/>
	<path class="st0" d="M202.1,212.4c0-5.7,0-6.7-0.1-7.9c-0.1-1.2-0.3-1.8-1.5-2c-0.3,0-0.9-0.1-1.3-0.1c-0.1,0-0.3-0.2-0.3-0.3
		c0-0.2,0.2-0.3,0.6-0.3c1.7,0,4.3,0.1,4.5,0.1c0.4,0,3.6-0.1,4.7-0.1c2.4,0,5.1,0.2,7.1,1.6c0.9,0.7,2.6,2.5,2.6,5
		c0,2.7-1.1,5.3-4.6,8.3c3.1,3.9,5.7,7.2,7.9,9.5c2,2.1,3.3,2.4,4.2,2.5c0.7,0.1,1.1,0.1,1.3,0.1s0.3,0.2,0.3,0.3
		c0,0.2-0.2,0.3-0.9,0.3h-2.4c-2.1,0-3.1-0.2-4-0.7c-1.6-0.9-3-2.6-5.2-5.4c-1.6-2-3.3-4.3-4.1-5.3c-0.2-0.2-0.3-0.2-0.5-0.2
		l-4.8-0.1c-0.2,0-0.3,0.1-0.3,0.3v0.9c0,3.5,0,6.4,0.2,7.9c0.1,1.1,0.3,1.8,1.5,1.9c0.5,0.1,1.3,0.2,1.7,0.2c0.3,0,0.3,0.2,0.3,0.3
		c0,0.2-0.2,0.3-0.6,0.3c-2.1,0-4.5-0.1-4.6-0.1c0,0-2.6,0.1-3.7,0.1c-0.4,0-0.6-0.1-0.6-0.3c0-0.1,0.1-0.3,0.3-0.3
		c0.3,0,0.8-0.1,1.2-0.2c0.7-0.2,0.8-0.9,1-1.9c0.2-1.5,0.2-4.4,0.2-7.9V212.4z M205.4,215.5c0,0.2,0.1,0.3,0.3,0.5
		c0.6,0.3,2.5,0.6,4.2,0.6c0.9,0,1.9,0,2.8-0.6c1.3-0.9,2.3-2.8,2.3-5.6c0-4.6-2.5-7.2-6.5-7.2c-1.1,0-2.3,0.1-2.7,0.2
		c-0.2,0.1-0.3,0.2-0.3,0.4V215.5z"/>
	<path class="st0" d="M241.6,218.8c0,3.5,0,6.4,0.2,7.9c0.1,1.1,0.3,1.8,1.5,1.9c0.5,0.1,1.4,0.2,1.7,0.2c0.3,0,0.3,0.2,0.3,0.3
		c0,0.2-0.2,0.3-0.6,0.3c-2.1,0-4.5-0.1-4.7-0.1c-0.2,0-2.8,0.1-3.9,0.1c-0.4,0-0.6-0.1-0.6-0.3c0-0.1,0.1-0.3,0.3-0.3
		c0.3,0,0.8-0.1,1.1-0.2c0.8-0.2,1-0.9,1.1-2c0.2-1.5,0.2-4.4,0.2-7.9v-15.4l-5.5,0.1c-2.4,0-3.3,0.3-3.8,1.2
		c-0.4,0.6-0.5,0.9-0.6,1.2c-0.1,0.3-0.2,0.3-0.4,0.3c-0.1,0-0.3-0.1-0.3-0.3c0-0.4,0.8-3.7,0.8-4c0.1-0.2,0.3-0.7,0.4-0.7
		c0.3,0,0.6,0.3,1.7,0.4c1.1,0.1,2.5,0.2,3,0.2h14.3c1.2,0,2.1-0.1,2.7-0.2c0.6-0.1,0.9-0.2,1.1-0.2s0.2,0.2,0.2,0.4
		c0,1.1-0.1,3.7-0.1,4.2c0,0.3-0.2,0.5-0.3,0.5c-0.2,0-0.3-0.1-0.3-0.6l0-0.4c-0.1-1.1-0.9-1.9-4.6-2l-4.7-0.1V218.8z"/>
	<path class="st0" d="M269.1,219.9c0-2-0.3-2.7-0.8-3.7c-0.3-0.6-5.4-8.7-6.7-10.6c-0.9-1.4-1.8-2.2-2.5-2.7
		c-0.6-0.3-1.3-0.5-1.6-0.5c-0.2,0-0.4-0.2-0.4-0.3c0-0.2,0.1-0.3,0.5-0.3c0.7,0,3.6,0.1,3.7,0.1c0.3,0,1.8-0.1,3.3-0.1
		c0.4,0,0.5,0.1,0.5,0.3c0,0.1-0.3,0.3-0.6,0.4c-0.3,0.1-0.5,0.3-0.5,0.6c0,0.5,0.3,0.9,0.5,1.4l6.9,11.4c0.8-1.5,5.5-9.4,6.2-10.6
		c0.5-0.8,0.6-1.4,0.6-1.9c0-0.5-0.2-0.8-0.6-0.9c-0.3-0.1-0.6-0.3-0.6-0.4c0-0.1,0.2-0.2,0.6-0.2c1,0,2.3,0.1,2.6,0.1
		c0.3,0,3-0.1,3.7-0.1c0.3,0,0.5,0.1,0.5,0.2c0,0.2-0.2,0.4-0.5,0.4c-0.4,0-1.2,0.1-1.8,0.5c-0.7,0.4-1.1,0.8-1.9,1.8
		c-1.2,1.5-6.6,10.1-7.4,11.6c-0.6,1.3-0.5,2.5-0.5,3.7v3.1c0,0.6,0,2.1,0.1,3.7c0.1,1.1,0.3,1.8,1.5,1.9c0.5,0.1,1.4,0.2,1.7,0.2
		c0.2,0,0.3,0.2,0.3,0.3c0,0.2-0.2,0.3-0.6,0.3c-2.1,0-4.6-0.1-4.8-0.1c-0.2,0-2.6,0.1-3.7,0.1c-0.4,0-0.6-0.1-0.6-0.3
		c0-0.1,0.1-0.3,0.3-0.3c0.3,0,0.8-0.1,1.1-0.2c0.8-0.2,1-0.9,1.1-1.9c0.1-1.5,0.1-3.1,0.1-3.7V219.9z"/>
	<path class="st0" d="M328.6,228.9c-0.6-0.3-0.6-0.5-0.6-1.6c0-2.1,0.2-3.9,0.2-4.6c0-0.5,0.1-0.7,0.3-0.7c0.3,0,0.3,0.1,0.3,0.5
		c0,0.4,0,1,0.1,1.6c0.6,3.2,3.5,4.4,6.4,4.4c4.1,0,6.1-3,6.1-5.7c0-3-1.2-4.7-4.9-7.7l-1.9-1.6c-4.6-3.7-5.6-6.4-5.6-9.3
		c0-4.6,3.4-7.7,8.9-7.7c1.7,0,2.9,0.2,4,0.4c0.8,0.2,1.2,0.2,1.5,0.2c0.3,0,0.4,0.1,0.4,0.3c0,0.2-0.2,1.6-0.2,4.6
		c0,0.7-0.1,1-0.3,1c-0.3,0-0.3-0.2-0.3-0.6c0-0.5-0.3-1.7-0.6-2.1c-0.3-0.5-1.4-2.3-5.4-2.3c-3,0-5.3,1.8-5.3,5
		c0,2.5,1.1,4,5.2,7.2l1.2,0.9c5.1,4,6.3,6.7,6.3,10.1c0,1.8-0.7,5-3.7,7.1c-1.8,1.3-4.2,1.8-6.5,1.8
		C332.4,230,330.4,229.7,328.6,228.9z"/>
	<path class="st0" d="M369.9,201.3c8.5,0,15,5.2,15,13.7c0,8.2-6.1,14.9-15.2,14.9c-10.4,0-14.8-7.8-14.8-14.4
		C354.9,209.7,359.4,201.3,369.9,201.3z M370.7,228.4c3.4,0,10.2-1.8,10.2-12.4c0-8.8-5.3-13.4-11.3-13.4c-6.3,0-10.9,4-10.9,11.9
		C358.8,223.1,363.9,228.4,370.7,228.4z"/>
	<path class="st0" d="M400.5,218.9c0,5.4,0.1,7.6,0.8,8.2c0.6,0.6,2.1,0.9,5,0.9c2,0,3.7,0,4.6-1.1c0.5-0.6,0.8-1.3,0.9-2.1
		c0-0.3,0.2-0.5,0.4-0.5c0.2,0,0.3,0.2,0.3,0.6c0,0.4-0.3,2.6-0.6,3.7c-0.3,0.9-0.4,1-2.4,1c-2.7,0-4.8,0-6.6-0.1
		c-1.7,0-3-0.1-4.1-0.1c-0.2,0-0.8,0-1.5,0c-0.8,0-1.6,0.1-2.2,0.1c-0.4,0-0.6-0.1-0.6-0.3c0-0.1,0.1-0.3,0.3-0.3
		c0.3,0,0.8-0.1,1.2-0.2c0.7-0.2,0.8-0.9,1-1.9c0.2-1.5,0.2-4.4,0.2-7.9v-6.5c0-5.7,0-6.7-0.1-7.9c-0.1-1.2-0.3-1.8-1.5-2
		c-0.3,0-0.9-0.1-1.3-0.1c-0.1,0-0.3-0.2-0.3-0.3c0-0.2,0.2-0.3,0.6-0.3c1.7,0,4.1,0.1,4.3,0.1c0.2,0,3-0.1,4.2-0.1
		c0.4,0,0.6,0.1,0.6,0.3c0,0.1-0.2,0.3-0.3,0.3c-0.3,0-0.8,0-1.2,0.1c-1.1,0.2-1.3,0.8-1.4,2.1c0,1.2,0,2.2,0,7.9V218.9z"/>
	<path class="st0" d="M422.2,212.4c0-5.7,0-6.7-0.1-7.9s-0.3-1.8-1.5-2c-0.3,0-0.9-0.1-1.3-0.1c-0.1,0-0.3-0.2-0.3-0.3
		c0-0.2,0.2-0.3,0.6-0.3c1.7,0,4,0.1,4.3,0.1c0.3,0,2.7-0.1,3.8-0.1c0.4,0,0.6,0.1,0.6,0.3c0,0.1-0.2,0.3-0.3,0.3
		c-0.3,0-0.5,0-0.9,0.1c-1,0.2-1.2,0.8-1.3,2c-0.1,1.2-0.1,2.2-0.1,7.9v5.1c0,5.3,1.2,7.5,2.8,8.9c1.8,1.7,3.5,2,5.6,2
		c2.3,0,4.6-1,5.8-2.6c1.8-2.1,2.2-5.1,2.2-8.9v-4.6c0-5.7,0-6.7-0.1-7.9s-0.3-1.8-1.5-2c-0.3,0-0.9-0.1-1.3-0.1
		c-0.2,0-0.3-0.2-0.3-0.3c0-0.2,0.2-0.3,0.6-0.3c1.7,0,3.9,0.1,4.1,0.1c0.3,0,2.1-0.1,3.2-0.1c0.4,0,0.6,0.1,0.6,0.3
		c0,0.1-0.1,0.3-0.3,0.3c-0.3,0-0.5,0-0.9,0.1c-1,0.2-1.2,0.8-1.3,2c-0.1,1.2,0,2.2,0,7.9v3.9c0,4-0.5,8.4-3.5,11
		c-2.8,2.4-5.7,2.7-7.9,2.7c-1.2,0-5.2-0.1-7.9-2.6c-1.8-1.7-3.3-4.3-3.3-9.6V212.4z"/>
	<path class="st0" d="M468.2,218.8c0,3.5,0,6.4,0.2,7.9c0.1,1.1,0.3,1.8,1.5,1.9c0.5,0.1,1.4,0.2,1.7,0.2c0.3,0,0.3,0.2,0.3,0.3
		c0,0.2-0.2,0.3-0.6,0.3c-2.1,0-4.5-0.1-4.7-0.1c-0.2,0-2.8,0.1-3.9,0.1c-0.4,0-0.6-0.1-0.6-0.3c0-0.1,0.1-0.3,0.3-0.3
		c0.3,0,0.8-0.1,1.1-0.2c0.8-0.2,1-0.9,1.1-2c0.2-1.5,0.2-4.4,0.2-7.9v-15.4l-5.5,0.1c-2.4,0-3.3,0.3-3.8,1.2
		c-0.4,0.6-0.5,0.9-0.6,1.2c-0.1,0.3-0.2,0.3-0.4,0.3c-0.1,0-0.3-0.1-0.3-0.3c0-0.4,0.8-3.7,0.8-4c0.1-0.2,0.3-0.7,0.4-0.7
		c0.3,0,0.6,0.3,1.7,0.4c1.1,0.1,2.5,0.2,3,0.2h14.3c1.2,0,2.1-0.1,2.7-0.2c0.6-0.1,0.9-0.2,1.1-0.2s0.2,0.2,0.2,0.4
		c0,1.1-0.1,3.7-0.1,4.2c0,0.3-0.2,0.5-0.3,0.5s-0.3-0.1-0.3-0.6l0-0.4c-0.1-1.1-0.9-1.9-4.6-2l-4.7-0.1V218.8z"/>
	<path class="st0" d="M493.9,218.8c0,3.5,0,6.4,0.2,7.9c0.1,1.1,0.3,1.8,1.4,1.9c0.6,0.1,1.4,0.2,1.7,0.2c0.2,0,0.3,0.2,0.3,0.3
		c0,0.2-0.2,0.3-0.6,0.3c-2.1,0-4.6-0.1-4.7-0.1c-0.2,0-2.6,0.1-3.7,0.1c-0.4,0-0.6-0.1-0.6-0.3c0-0.1,0.1-0.3,0.3-0.3
		c0.3,0,0.8-0.1,1.2-0.2c0.7-0.2,0.9-0.9,1-1.9c0.2-1.5,0.2-4.4,0.2-7.9v-6.5c0-5.7,0-6.7-0.1-7.9c-0.1-1.2-0.4-1.8-1.2-2
		c-0.4-0.1-0.9-0.1-1.2-0.1c-0.2,0-0.3-0.2-0.3-0.3c0-0.2,0.2-0.3,0.6-0.3c1.2,0,3.6,0.1,3.8,0.1c0.2,0,2.6-0.1,3.8-0.1
		c0.4,0,0.6,0.1,0.6,0.3c0,0.1-0.2,0.3-0.3,0.3c-0.3,0-0.5,0-0.9,0.1c-1,0.2-1.2,0.7-1.3,2c0,1.2,0,2.2,0,7.9V218.8z"/>
	<path class="st0" d="M521.6,201.3c8.5,0,15,5.2,15,13.7c0,8.2-6.1,14.9-15.2,14.9c-10.4,0-14.8-7.8-14.8-14.4
		C506.6,209.7,511.1,201.3,521.6,201.3z M522.5,228.4c3.4,0,10.2-1.8,10.2-12.4c0-8.8-5.3-13.4-11.3-13.4c-6.3,0-10.9,4-10.9,11.9
		C510.5,223.1,515.6,228.4,522.5,228.4z"/>
	<path class="st0" d="M550.4,224.4c0.1,3,0.4,3.9,1.5,4.2c0.7,0.2,1.5,0.2,1.9,0.2c0.2,0,0.3,0.1,0.3,0.3c0,0.2-0.3,0.3-0.7,0.3
		c-2.1,0-3.7-0.1-4-0.1c-0.3,0-1.9,0.1-3.7,0.1c-0.4,0-0.6,0-0.6-0.3c0-0.2,0.1-0.3,0.3-0.3c0.3,0,1,0,1.5-0.2
		c0.9-0.3,1.1-1.2,1.1-4.6v-20.9c0-1.5,0.2-1.8,0.5-1.8c0.4,0,1.1,0.7,1.5,1.1c0.6,0.6,6.1,6.4,12,12.5c3.7,3.9,7.8,8.2,8.9,9.4
		l-0.4-18.3c0-2.4-0.3-3.2-1.4-3.4c-0.7-0.1-1.5-0.2-1.8-0.2c-0.3,0-0.3-0.2-0.3-0.3c0-0.2,0.3-0.3,0.7-0.3c1.7,0,3.5,0.1,4,0.1
		c0.4,0,1.7-0.1,3.2-0.1c0.4,0,0.7,0,0.7,0.3c0,0.1-0.2,0.3-0.4,0.3c-0.2,0-0.5,0-0.9,0.1c-1.2,0.3-1.3,1-1.3,3.2l-0.1,21.4
		c0,2.4,0,2.6-0.3,2.6c-0.4,0-0.8-0.3-2.9-2.2c-0.4-0.3-5.8-5.7-9.8-9.9c-4.4-4.6-8.6-9.1-9.8-10.4L550.4,224.4z"/>
	<path class="st0" d="M585.7,228.9c-0.5-0.3-0.6-0.4-0.6-1.4c0-1.8,0.2-3.3,0.2-3.9c0-0.4,0.1-0.6,0.3-0.6c0.2,0,0.3,0.1,0.3,0.4
		c0,0.3,0,0.8,0.1,1.3c0.6,2.7,3.4,3.6,6,3.6c3.7,0,5.7-2.1,5.7-4.9c0-2.6-1.4-3.9-4.8-6.4l-1.7-1.3c-4.1-3.1-5.4-5.3-5.4-7.8
		c0-4.3,3.4-6.9,8.4-6.9c1.5,0,3,0.2,3.9,0.4c0.7,0.2,1,0.2,1.3,0.2c0.3,0,0.4,0,0.4,0.3c0,0.2-0.2,1.4-0.2,3.9c0,0.6,0,0.8-0.3,0.8
		c-0.3,0-0.3-0.2-0.3-0.5c0-0.4-0.3-1.4-0.6-1.8c-0.3-0.4-1.5-1.8-4.9-1.8c-2.8,0-5,1.4-5,4c0,2.3,1.2,3.7,4.9,6.2l1.1,0.7
		c4.6,3.1,6.2,5.7,6.2,8.8c0,2.1-0.8,4.5-3.5,6.2c-1.6,1-4,1.3-6,1.3C589.4,229.9,587.3,229.7,585.7,228.9z"/>
	<path class="st0" d="M656.9,217.1c0,6.3,0.2,9.1,0.9,9.8c0.7,0.7,1.8,1,5.2,1c2.3,0,4.2,0,5.2-1.3c0.6-0.7,1-1.8,1.1-2.6
		c0-0.3,0.1-0.6,0.4-0.6c0.2,0,0.3,0.2,0.3,0.6c0,0.5-0.3,3.1-0.6,4.3c-0.3,1-0.4,1.2-2.7,1.2c-3.1,0-5.3-0.1-7.1-0.1
		c-1.8-0.1-3.1-0.1-4.4-0.1c-0.2,0-0.9,0-1.8,0c-0.9,0-1.8,0.1-2.5,0.1c-0.5,0-0.7-0.1-0.7-0.3c0-0.1,0.1-0.3,0.3-0.3
		c0.4,0,0.9-0.1,1.3-0.2c0.9-0.2,1.1-1.1,1.2-2.4c0.2-1.8,0.2-5.2,0.2-9.3v-7.6c0-6.7,0-7.9-0.1-9.3c-0.1-1.5-0.4-2.2-1.8-2.5
		c-0.3-0.1-1.1-0.1-1.5-0.1c-0.2,0-0.3-0.1-0.3-0.3c0-0.3,0.2-0.3,0.7-0.3c1.9,0,4.6,0.1,4.9,0.1s3.4-0.1,4.6-0.1
		c0.5,0,0.7,0.1,0.7,0.3c0,0.2-0.2,0.3-0.3,0.3c-0.3,0-0.9,0-1.4,0.1c-1.2,0.2-1.6,0.9-1.7,2.5c-0.1,1.4-0.1,2.6-0.1,9.3V217.1z"/>
	<path class="st0" d="M688.3,202.5c0.5-1.2,0.6-1.4,0.9-1.4c0.4,0,0.5,0.5,0.9,1.3c0.7,1.5,6.8,16.6,9.1,22.2c1.4,3.3,2.4,3.7,3.2,4
		c0.6,0.2,1.1,0.2,1.5,0.2c0.2,0,0.5,0.1,0.5,0.3c0,0.2-0.4,0.3-0.9,0.3c-0.6,0-3.4,0-6-0.1c-0.7,0-1.3,0-1.3-0.3
		c0-0.2,0.1-0.2,0.3-0.3c0.2-0.1,0.6-0.4,0.3-1l-3.4-8.4c-0.1-0.2-0.1-0.2-0.3-0.2h-8.7c-0.2,0-0.3,0.1-0.4,0.3l-2.2,5.8
		c-0.3,0.9-0.6,1.8-0.6,2.5c0,0.7,0.6,1,1.3,1h0.3c0.3,0,0.4,0.1,0.4,0.3c0,0.2-0.2,0.3-0.6,0.3c-0.9,0-3-0.1-3.4-0.1
		c-0.4,0-2.3,0.1-3.8,0.1c-0.5,0-0.7-0.1-0.7-0.3c0-0.2,0.2-0.3,0.3-0.3c0.3,0,0.8,0,1.1-0.1c1.7-0.2,2.5-1.5,3.2-3.4L688.3,202.5z
		 M692.5,217.7c0.2,0,0.2-0.1,0.1-0.3l-3.7-10c-0.2-0.6-0.4-0.6-0.6,0l-3.5,10c0,0.2,0,0.3,0.1,0.3H692.5z"/>
	<path class="st0" d="M735.4,224h0.2c0.9-3,4.3-13.6,5.7-18.3c0.4-1.4,0.4-1.8,0.4-2.3c0-0.6-0.3-1.1-2-1.1c-0.2,0-0.3-0.2-0.3-0.3
		c0-0.2,0.2-0.3,0.6-0.3c1.9,0,3.5,0.1,3.9,0.1c0.3,0,1.9-0.1,3.1-0.1c0.3,0,0.5,0.1,0.5,0.2c0,0.2-0.1,0.4-0.3,0.4
		c-0.1,0-0.9,0-1.3,0.2c-1.1,0.4-1.7,1.8-2.5,3.9c-1.7,4.6-5.4,16.3-6.9,20.3c-1,2.7-1.2,3.1-1.6,3.1c-0.4,0-0.7-0.5-1.2-1.9
		l-7.4-20c-1.3,3.2-6.4,16.6-7.8,20c-0.6,1.5-0.9,1.9-1.3,1.9c-0.4,0-0.7-0.4-1.5-2.9l-6.7-21.7c-0.6-1.9-1-2.4-2-2.8
		c-0.5-0.2-1.5-0.2-1.7-0.2c-0.2,0-0.3-0.1-0.3-0.3c0-0.2,0.3-0.3,0.6-0.3c2,0,4.1,0.1,4.5,0.1c0.3,0,2.1-0.1,4-0.1
		c0.5,0,0.7,0.1,0.7,0.3c0,0.2-0.2,0.3-0.4,0.3c-0.3,0-0.9,0-1.3,0.2c-0.3,0.1-0.5,0.3-0.5,0.8c0,0.5,0.3,1.8,0.7,3.4
		c0.6,2.3,4.5,15.7,4.9,17.2h0.1l7.9-20.4c0.6-1.5,0.8-1.7,1-1.7c0.3,0,0.6,0.5,1,1.7L735.4,224z"/>
</g>
</svg>
